<svg width="36" height="36" viewBox="0 0 36 36" fill="none" xmlns="http://www.w3.org/2000/svg">
<rect width="36" height="36" fill="url(#paint0_linear_161_1471)"/>
<path d="M16.9 11.6L23.2 22.6H21.9L20.4 20C19.6 19.8 18.8 19.6 17.9 19.6C17.4 19.6 16.9 19.6 16.5 19.7L17.2 18.5C17.4 18.5 17.7 18.5 17.9 18.5C18.5 18.5 19 18.5 19.6 18.6L16.8 13.8L12.2 21.8L11.5 20.7L16.9 11.6ZM18.2 20.4C18.1 20.4 18 20.4 18 20.4C17 20.4 15.9 20.5 15 20.8L17.5 16.4L16.8 15.3L12.6 22.6H14C15.2 21.9 16.6 21.6 18 21.6C18.9 21.6 19.9 21.8 20.8 22.1L20 20.6C19.4 20.5 18.8 20.4 18.2 20.4ZM30 18C30 24.6 24.6 30 18 30C11.4 30 6 24.6 6 18C6 11.4 11.4 6 18 6C24.6 6 30 11.4 30 18ZM28.9 18C28.9 15.1 27.8 12.3 25.7 10.3C23.6 8.3 20.9 7.1 18 7.1C15.1 7.1 12.4 8.3 10.4 10.3C8.4 12.3 7.2 15.1 7.2 18C7.2 20.9 8.3 23.7 10.4 25.7C12.4 27.7 15.2 28.9 18.1 28.9C21 28.9 23.8 27.8 25.8 25.7C27.8 23.7 28.9 20.9 28.9 18ZM28 18C28 19.3 27.7 20.6 27.2 21.8C26.7 23 26 24.1 25 25.1C24.1 26 23 26.8 21.7 27.3C20.6 27.8 19.3 28 18 28C16.7 28 15.4 27.7 14.2 27.2C13 26.7 11.9 26 10.9 25C10 24.1 9.2 23 8.7 21.7C8.2 20.4 8 19.3 8 18C8 16.7 8.3 15.4 8.8 14.2C9.2 12.9 10 11.8 10.9 10.9C12.8 9 15.3 8 18 8C19.3 8 20.6 8.3 21.8 8.8C23 9.3 24.1 10 25.1 11C26 11.9 26.8 13 27.3 14.3C27.8 15.4 28 16.7 28 18ZM26.9 18C26.9 16.8 26.7 15.7 26.2 14.6C25.8 13.5 25.1 12.6 24.3 11.7C23.5 10.9 22.5 10.2 21.4 9.8C20.3 9.4 19.2 9.1 18 9.1C16.8 9.1 15.7 9.3 14.6 9.8C13.5 10.2 12.6 10.9 11.7 11.7C11 12.5 10.3 13.5 9.9 14.6C9.4 15.7 9.2 16.8 9.2 18C9.2 19.2 9.4 20.3 9.9 21.4C10.3 22.5 11 23.4 11.8 24.3C12.6 25.1 13.6 25.8 14.7 26.2C15.8 26.6 16.9 26.9 18.1 26.9C19.3 26.9 20.4 26.7 21.5 26.2C22.6 25.8 23.5 25.1 24.4 24.3C25.2 23.5 25.9 22.5 26.3 21.4C26.6 20.3 26.9 19.1 26.9 18ZM17.5 11.2L23.6 21.8L24.3 20.7L18.8 11.2H17.5Z" fill="white"/>
<defs>
<linearGradient id="paint0_linear_161_1471" x1="0" y1="0" x2="36" y2="36" gradientUnits="userSpaceOnUse">
<stop stop-color="#D40C6C"/>
<stop offset="1" stop-color="#705AD9"/>
</linearGradient>
</defs>
</svg>
