<svg width="36" height="36" viewBox="0 0 36 36" fill="none" xmlns="http://www.w3.org/2000/svg">
<rect width="36" height="36" fill="url(#paint0_linear_161_1474)"/>
<path fill-rule="evenodd" clip-rule="evenodd" d="M26 18C26 22.4183 22.4183 26 18 26C13.5817 26 10 22.4183 10 18C10 13.5817 13.5817 10 18 10C22.4183 10 26 13.5817 26 18ZM28 18C28 23.5228 23.5228 28 18 28C12.4771 28 8 23.5228 8 18C8 12.4771 12.4771 8 18 8C23.5228 8 28 12.4771 28 18ZM17.0036 15.8541C18.746 12.6788 18.7775 12.6266 19.0787 12.4157C19.2295 12.3101 19.5927 12.2236 19.886 12.2236C20.7213 12.2236 21.0966 12.6773 22.589 15.4912C23.3067 16.8443 23.8939 17.9942 23.8939 18.0466C23.8939 18.2252 21.2313 23.3416 20.0392 23.8616C19.0585 23.9692 18.8193 23.7018 17.2101 20.6974L15.7953 18.0559L17.0036 15.8541ZM12.4008 16.9505C12.8841 15.6839 13.1577 15.1132 13.4312 14.8013C13.644 14.5585 13.9817 14.5224 14.3243 14.7057C14.5582 14.831 15.3153 16.807 15.7033 18.0559C15.7033 18.0559 15.7308 18.0554 15.4541 18.8296C14.9105 20.3505 14.342 21.4081 14.0256 21.4875C13.3631 21.6537 13.1076 21.3111 12.4193 19.3337L11.9766 18.0618L12.4008 16.9505Z" fill="white"/>
<defs>
<linearGradient id="paint0_linear_161_1474" x1="0" y1="0" x2="36" y2="36" gradientUnits="userSpaceOnUse">
<stop stop-color="#53DBAD"/>
<stop offset="1" stop-color="#4BD2A4"/>
</linearGradient>
</defs>
</svg>
