<svg width="36" height="36" viewBox="0 0 36 36" fill="none" xmlns="http://www.w3.org/2000/svg">
<rect width="36" height="36" fill="#C0FF00"/>
<path fill-rule="evenodd" clip-rule="evenodd" d="M21.5154 9C23.4725 9 25.0725 10.6048 25.0725 12.6C25.0725 13.641 24.644 14.6096 23.8726 15.3036C24.6297 15.9831 25.0725 16.9663 25.0725 17.9928C25.0725 19.0337 24.6297 20.0169 23.8726 20.6964C24.6297 21.3903 25.0725 22.3735 25.0725 23.4C25.0725 25.3808 23.4869 27 21.5154 27H10.9297V9H21.5154ZM20.9725 10.8072H13.144V14.3783H20.9725H21.0726C22.0439 14.3494 22.8153 13.5253 22.7868 12.5422C22.7583 11.559 21.944 10.7783 20.9725 10.8072ZM20.9725 16.2H13.144V19.7711H20.9725H21.0726C22.0439 19.7421 22.8153 18.9181 22.7868 17.9349C22.7583 16.9518 21.944 16.1711 20.9725 16.2ZM13.144 25.1783H20.9725C21.9583 25.1783 22.744 24.3832 22.744 23.4C22.744 22.4024 21.944 21.6072 20.9725 21.6072H13.144V25.1783Z" fill="black"/>
</svg>
