<svg width="36" height="36" viewBox="0 0 36 36" fill="none" xmlns="http://www.w3.org/2000/svg">
<rect width="36" height="36" fill="white"/>
<path fill-rule="evenodd" clip-rule="evenodd" d="M29 11.3597L27.801 12.3417C26.7784 11.1451 25.501 10.1829 24.0586 9.5229C22.616 8.86289 21.0437 8.52108 19.452 8.52158C16.5609 8.52158 13.7882 9.64829 11.7438 11.6538C9.69949 13.6594 8.55098 16.3795 8.55098 19.2158C8.5465 20.7787 8.89591 22.3231 9.57397 23.7374L8.15499 24.3849C7.393 22.7642 6.99894 21.0006 7 19.2158C7 15.976 8.31191 12.8688 10.6471 10.5779C12.9823 8.28703 16.1496 7.00001 19.452 7.00001C21.2715 6.9982 23.0694 7.38761 24.7189 8.14084C26.3685 8.89406 27.8298 9.9928 29 11.3597ZM19.452 10.4317C17.0782 10.4345 14.8024 11.3609 13.1238 13.0076C11.4452 14.6544 10.5009 16.887 10.498 19.2158C10.498 21.5456 11.4414 23.7798 13.1206 25.4272C14.7998 27.0745 17.0772 28 19.452 28V26.4784C18.4804 26.4784 17.5182 26.2905 16.6206 25.9254C15.7231 25.5603 14.9077 25.0251 14.2212 24.3506C13.5346 23.6761 12.9903 22.8754 12.6195 21.9943C12.2487 21.1132 12.0585 20.169 12.06 19.2158C12.0716 17.3 12.8556 15.4666 14.2406 14.1159C15.6256 12.7653 17.4992 12.0072 19.452 12.0072C20.5322 12.0046 21.5996 12.2353 22.5786 12.6829C23.5578 13.1305 24.4243 13.784 25.117 14.5971L26.316 13.6151C25.4795 12.6235 24.431 11.8244 23.2449 11.2743C22.0588 10.7242 20.764 10.4365 19.452 10.4317ZM19.452 15.7842C19.9642 15.7826 20.4703 15.9353 20.9343 16.1478C21.3983 16.3605 21.8086 16.6712 22.136 17.0576L23.478 15.9784C22.9839 15.4031 22.3674 14.9408 21.672 14.6239C20.9765 14.307 20.2188 14.1432 19.452 14.1439C18.7621 14.1425 18.0785 14.2746 17.4407 14.5326C16.8028 14.7907 16.2231 15.1696 15.7347 15.6478C15.2463 16.1258 14.8588 16.6938 14.5945 17.319C14.3301 17.9443 14.194 18.6145 14.194 19.2914C14.194 20.6594 14.7479 21.9714 15.734 22.9388C16.72 23.9062 18.0575 24.4496 19.452 24.4496C20.1619 24.4386 20.8622 24.2866 21.5107 24.0029C22.1591 23.7191 22.7423 23.3094 23.225 22.7986L22.125 21.4173C21.7976 21.8036 21.3872 22.1143 20.9233 22.327C20.4593 22.5396 19.9532 22.6491 19.441 22.6475C18.9798 22.6503 18.5225 22.5636 18.0956 22.3925C17.6687 22.2213 17.2805 21.969 16.9534 21.65C16.6262 21.3312 16.3665 20.9518 16.1893 20.5341C16.0122 20.1164 15.921 19.6683 15.921 19.2158C15.921 18.7625 16.0125 18.3136 16.1904 17.8951C16.3682 17.4766 16.6289 17.0968 16.9571 16.7777C17.2854 16.4586 17.675 16.2065 18.1032 16.036C18.5314 15.8655 18.9899 15.7799 19.452 15.7842Z" fill="black"/>
</svg>
