<svg width="36" height="36" viewBox="0 0 36 36" fill="none" xmlns="http://www.w3.org/2000/svg">
<rect width="36" height="36" fill="white"/>
<path d="M24.6703 14.0059L21.3295 16.0117L24.6703 18.0235L27.9999 16.0117L24.6703 14.0117V14.0059ZM11.3296 14.0059L8 16.0117L11.3296 18.0235L14.6704 16.0117L11.3296 14.0117V14.0059Z" fill="#C9EEFF"/>
<path d="M14.6719 24.0176V27.9999L18.0015 25.9999V22.0117L14.6719 24.0117V24.0176Z" fill="#5178E5"/>
<path d="M21.33 16.0235V20.0059L18.0005 18.0059V14.0176L21.33 16.0176V16.0235ZM14.6709 12.0118V15.9941L11.3301 13.9941V10L14.6709 12V12.0118ZM21.33 24V27.9823L18.0005 25.9823V22L21.33 24ZM14.6709 16.0353V20.0235L11.3301 18.0176V14.0294L14.6709 16.0353Z" fill="#59A8FE"/>
<path d="M14.6709 20.0235V23.9999L11.3301 21.9999V18.0176L14.6709 20.0176V20.0235Z" fill="#59A8FE"/>
<path d="M11.3296 18.0176V21.9999L8 19.9999V16.0117L11.3296 18.0176ZM17.9999 22.0117V25.9941L14.6704 23.9941V20.0117L17.9999 22.0117ZM14.6704 23.9999V27.9823L11.3296 25.9823V21.9999L14.6704 23.9999Z" fill="#59A8FE"/>
<path d="M21.331 12.0118V15.9941L24.6718 13.9941V10L21.331 12V12.0118ZM14.6719 16.0235V20.0059L18.0015 18.0059V14.0176L14.6719 16.0176V16.0235Z" fill="#5176E6"/>
<path d="M18.0005 18L14.6709 20L18.0005 22.0117L21.33 20.0059L18.0005 18ZM14.6709 12.0176L11.3301 14.0235L14.6709 16.0353L18.0005 14.0235L14.6709 12.0235V12.0176ZM18.0005 10L14.6709 12.0176L18.0005 14.0235L21.33 12.0235L18.0005 10.0059V10ZM21.33 8L18.0005 10L21.33 12.0176L24.6708 10.0059L21.33 8Z" fill="#C9EEFF"/>
<path d="M14.6709 8L11.3301 10L14.6709 12.0176L18.0005 10.0059L14.6709 8ZM21.33 11.9941L18.0005 14.0059L21.33 16.0059L24.6708 14.0059L21.33 12V11.9941Z" fill="#C9EEFF"/>
<path d="M8 16.0117L11.3296 18.0411M14.6704 24.0176V27.9823" stroke="white" stroke-width="0.43" stroke-miterlimit="10" stroke-linecap="round" stroke-linejoin="round"/>
<path d="M24.6708 10L21.33 12.0412M11.3301 10L14.6709 12.0353" stroke="white" stroke-width="0.43" stroke-miterlimit="10" stroke-linecap="round" stroke-linejoin="round"/>
<path d="M21.3301 16.0235V20.0058L24.6709 18.0058V14.0176L21.3357 16.0176L21.3301 16.0235Z" fill="#5176E6"/>
<path d="M21.3301 20.0058V23.9882L24.6709 21.9882V18L21.3357 20.0058H21.3301ZM24.6709 18.0176V21.9999L28.0005 19.9999V16.0117L24.6709 18.0117V18.0176Z" fill="#5176E6"/>
<path d="M18 22V25.9882L21.3352 23.9882V20.0059L18 22.0059V22Z" fill="#5176E6"/>
<path d="M21.3301 23.9883V27.9765L24.6709 25.9706V21.9824L21.3357 23.9883H21.3301Z" fill="#5176E6"/>
<path d="M24.6708 18.0235L21.3356 20.0059M21.4425 12.0412L18.0005 14.0118M24.8902 14.1412L18.0005 10L11.3301 14M21.2738 19.9647L18.0005 17.9647V14.0176L14.6709 12.0118M18.0005 17.947L14.6484 19.9706" stroke="#002445" stroke-width="0.43" stroke-miterlimit="10" stroke-linejoin="round"/>
<path d="M14.6719 16.0352L18.0015 14.0234L21.331 16.0352" stroke="white" stroke-width="0.43" stroke-miterlimit="10" stroke-linecap="round" stroke-linejoin="round"/>
<path d="M21.3301 27.9823V24M28.0005 16L24.6709 18.0235" stroke="white" stroke-width="0.43" stroke-miterlimit="10" stroke-linecap="round" stroke-linejoin="round"/>
<path d="M11.3296 10V14.0059L8 16.0117V19.9941L11.3296 22V25.9882L14.6704 27.9882L17.9999 25.9882L21.3295 27.9882L24.6703 25.9882V22L27.9999 20V16.0117L24.6703 14.0118V10L21.3295 8L17.9999 10L14.6704 8L11.3296 10Z" stroke="#002445" stroke-width="0.43" stroke-miterlimit="10" stroke-linejoin="round"/>
<path d="M24.6713 22.0939V14.1057M11.3418 18.0175L14.6714 20.0175" stroke="#002445" stroke-width="0.43" stroke-miterlimit="10" stroke-linejoin="round"/>
<path d="M14.6709 20.0235V24.0176M11.3301 14.0059V22.0058M21.33 24V20" stroke="#002445" stroke-width="0.43" stroke-miterlimit="10" stroke-linejoin="round"/>
<path d="M11.3301 14.0059L14.6709 16.0353V20.0117L18.0005 22.0117M18.0005 22.0117V26M18.0005 22.0117L21.33 20.0117V16.0353L24.6708 14.0059" stroke="white" stroke-width="0.43" stroke-miterlimit="10" stroke-linecap="round" stroke-linejoin="round"/>
<path d="M17.8322 25.8394C17.7306 25.9008 17.6979 26.033 17.7593 26.1346C17.8207 26.2363 17.9528 26.2689 18.0545 26.2076L17.8322 25.8394ZM24.497 21.8159L17.8322 25.8394L18.0545 26.2076L24.7193 22.1841L24.497 21.8159Z" fill="#002445"/>
<path d="M17.8896 26.2014C17.9913 26.2626 18.1234 26.2299 18.1847 26.1281C18.2459 26.0264 18.2131 25.8943 18.1114 25.833L17.8896 26.2014ZM11.2191 22.1837L17.8896 26.2014L18.1114 25.833L11.441 21.8153L11.2191 22.1837Z" fill="#002445"/>
</svg>
