<svg width="36" height="36" viewBox="0 0 36 36" fill="none" xmlns="http://www.w3.org/2000/svg">
<rect width="36" height="36" fill="black"/>
<path d="M8 10C8 8.89543 8.89543 8 10 8C11.1046 8 12 8.89543 12 10V13C12 14.1046 11.1046 15 10 15C8.89543 15 8 14.1046 8 13V10Z" fill="white"/>
<path d="M24 10C24 8.89543 24.8954 8 26 8C27.1046 8 28 8.89543 28 10V26C28 27.1046 27.1046 28 26 28C24.8954 28 24 27.1046 24 26V10Z" fill="white"/>
<path d="M16 23C16 21.8954 16.8954 21 18 21C19.1046 21 20 21.8954 20 23V26C20 27.1046 19.1046 28 18 28C16.8954 28 16 27.1046 16 26V23Z" fill="white"/>
<path d="M16 10C16 8.89543 16.8954 8 18 8C19.1046 8 20 8.89543 20 10V17C20 18.1046 19.1046 19 18 19C16.8954 19 16 18.1046 16 17V10Z" fill="white"/>
<path d="M8 25C8 23.8954 8.89543 23 10 23C11.1046 23 12 23.8954 12 25V26C12 27.1046 11.1046 28 10 28C8.89543 28 8 27.1046 8 26V25Z" fill="white"/>
<path d="M8 19C8 17.8954 8.89543 17 10 17C11.1046 17 12 17.8954 12 19C12 20.1046 11.1046 21 10 21C8.89543 21 8 20.1046 8 19Z" fill="white"/>
</svg>
