<svg width="36" height="36" viewBox="0 0 36 36" fill="none" xmlns="http://www.w3.org/2000/svg">
<rect width="36" height="36" fill="black"/>
<path d="M24.3078 7.93896C24.8187 7.65205 24.9938 7.01661 24.6988 6.51967C24.4038 6.02272 23.7503 5.85246 23.2394 6.13937C22.7285 6.42628 22.5534 7.06171 22.8484 7.55866C23.1434 8.0556 23.7968 8.22587 24.3078 7.93896Z" fill="url(#paint0_linear_1943_23788)"/>
<path d="M15.1719 28.5218C15.4914 28.3425 15.6009 27.9452 15.4164 27.6345C15.232 27.3237 14.8235 27.2174 14.504 27.3967C14.1845 27.5761 14.0751 27.9733 14.2595 28.2841C14.444 28.5948 14.8525 28.7013 15.1719 28.5218Z" fill="url(#paint1_linear_1943_23788)"/>
<path d="M12.6244 29.802C13.3503 29.3944 13.599 28.4917 13.1799 27.7859C12.7608 27.0798 11.8326 26.8381 11.1067 27.2456C10.3809 27.6532 10.1321 28.5559 10.5512 29.2617C10.9703 29.9678 11.8985 30.2095 12.6244 29.802Z" fill="url(#paint2_linear_1943_23788)"/>
<path fill-rule="evenodd" clip-rule="evenodd" d="M26.1122 13.0562C23.6328 8.87949 18.1412 7.44846 13.8465 9.85987C9.55188 12.2713 8.08042 17.612 10.5599 21.7886C13.0395 25.9654 18.5311 27.3965 22.8257 24.9849C24.886 23.8282 26.2966 21.997 26.9329 19.9449C24.9275 22.4853 22.7154 23.6716 20.2961 23.504H17.4587V20.8281C17.4587 19.0815 18.9146 17.6656 20.7103 17.6656H20.9605C22.3905 17.6656 23.5869 18.6382 23.8887 19.9403C25.1265 19.1345 26.2647 18.3166 27.3163 17.4936C27.3304 15.9865 26.9432 14.456 26.1122 13.0562ZM16.7119 21.5578C16.7119 19.4083 14.9201 17.6656 12.7098 17.6656V20.3852C12.7098 22.1076 14.1455 23.504 15.9166 23.504H16.7119V21.5578ZM16.7119 13.2869V11.3408H15.9166C14.1455 11.3408 12.7098 12.7371 12.7098 14.4596V17.1792L12.8344 17.1772C14.9871 17.1132 16.7119 15.3959 16.7119 13.2869ZM23.9622 14.26C23.9622 12.6478 22.6182 11.3408 20.9605 11.3408H17.4587V14.0167C17.4587 15.7633 18.9146 17.1792 20.7103 17.1792H20.9605C22.6182 17.1792 23.9622 15.8721 23.9622 14.26Z" fill="url(#paint3_linear_1943_23788)"/>
<path fill-rule="evenodd" clip-rule="evenodd" d="M9.38643 18.1053C9.41022 18.4047 9.44952 18.7 9.50357 18.99L9.42143 19.068L9.14678 19.3352L8.88593 19.5992C8.84362 19.643 8.8019 19.6866 8.76077 19.7301L8.5212 19.989C7.12716 21.5313 6.52026 22.8658 7.0045 23.6816C7.48874 24.4972 8.98058 24.6533 11.051 24.2504L11.4014 24.1781C11.4606 24.1652 11.5203 24.1519 11.5804 24.1382L11.946 24.0505L12.3212 23.9527C12.4479 23.9185 12.576 23.8825 12.7056 23.845L13.0988 23.7274C13.165 23.707 13.2315 23.686 13.2984 23.6649L13.7038 23.5326C13.772 23.5097 13.8406 23.4865 13.9094 23.4629L14.326 23.3162L14.7497 23.1601L15.1798 22.9946C15.252 22.9663 15.3245 22.9375 15.3971 22.9083L15.8363 22.7289C15.9099 22.6983 15.9838 22.6672 16.0579 22.6358L16.5049 22.4428L16.9567 22.2409C17.0324 22.2064 17.1083 22.1717 17.1842 22.1366L17.6423 21.9214C17.7191 21.8848 17.796 21.8478 17.8729 21.8105L18.3363 21.5823L18.5692 21.465L19.037 21.2241L19.507 20.9746L19.9789 20.717L20.2156 20.5851L20.685 20.3178C20.7626 20.273 20.8398 20.2282 20.9167 20.1832L21.3739 19.912L21.8223 19.6385L22.2618 19.363C22.3343 19.317 22.4064 19.2709 22.4781 19.2248L22.9037 18.9472C22.9738 18.9007 23.0434 18.8542 23.1128 18.8078L23.5236 18.5285L23.9242 18.2488C23.99 18.202 24.0554 18.1554 24.1205 18.1088L24.5052 17.8286L24.6934 17.6885L25.0617 17.4086C25.122 17.362 25.1819 17.3156 25.2414 17.2689L25.5922 16.9904L25.9312 16.7128L26.258 16.4366L26.5721 16.1621L26.8734 15.8899C26.9715 15.7995 27.0677 15.7095 27.1616 15.62L27.4361 15.3529L27.6969 15.0889C27.7393 15.045 27.781 15.0015 27.8222 14.958L28.0617 14.699C28.1004 14.6562 28.1386 14.6135 28.1761 14.5709L28.3937 14.318C29.5493 12.9379 30.0224 11.7542 29.5784 11.0065C29.1345 10.2588 27.8439 10.0653 26.0372 10.3486L25.703 10.4053C25.6465 10.4157 25.5894 10.4264 25.5319 10.4376L25.1816 10.5099C25.1223 10.5229 25.0625 10.5362 25.0025 10.5499L24.6368 10.6376L24.2617 10.7354L24.1498 10.7662C23.9174 10.5741 23.6747 10.3933 23.4229 10.2247L23.6392 10.1454L24.0862 9.98761L24.5265 9.8385L24.9595 9.6982L25.3851 9.56676L25.803 9.44426C25.8719 9.42459 25.9405 9.4053 26.0088 9.38639L26.4143 9.27747L26.8109 9.17772L27.1986 9.08719L27.577 9.00599L27.9456 8.93418C28.0668 8.91181 28.1863 8.89104 28.304 8.87185L28.6522 8.81908C28.7095 8.81108 28.7661 8.80349 28.8223 8.79631L29.1543 8.75803C29.2086 8.75245 29.2626 8.7473 29.3161 8.74254L29.631 8.71895L29.9342 8.70524C31.3704 8.66299 32.3825 8.97003 32.7968 9.66775C33.3396 10.582 32.7717 12.0256 31.3714 13.7157L31.1435 13.9846L30.9019 14.2573L30.6471 14.5336L30.379 14.8134C30.3333 14.8602 30.287 14.9071 30.2403 14.9544L29.9531 15.2385L29.8048 15.3817L29.499 15.6701C29.447 15.7183 29.3943 15.7666 29.3413 15.815L29.0174 16.1068L28.6817 16.4005L28.3346 16.6959L27.976 16.993L27.6066 17.2912L27.2262 17.5904L26.8353 17.8904L26.4342 18.1909C26.3664 18.241 26.2983 18.291 26.2297 18.3412L25.8136 18.6421L25.6018 18.7924L25.1711 19.0929L24.7313 19.3929C24.6572 19.443 24.5826 19.4929 24.5079 19.5428L24.0544 19.8416C23.978 19.8914 23.9015 19.9411 23.8244 19.9907L23.358 20.2879L22.8831 20.5835L22.4002 20.8774L21.9094 21.1696L21.4109 21.4593C21.3272 21.5074 21.2433 21.5555 21.1589 21.6033L20.6505 21.8887L20.1425 22.1675L19.6361 22.4385C19.5519 22.483 19.4677 22.5274 19.3836 22.5712L18.8803 22.831L18.3797 23.0831L17.8819 23.3274L17.3872 23.5638C17.305 23.6026 17.2231 23.641 17.1412 23.6792L16.652 23.9036L16.1669 24.1202C16.0865 24.1555 16.0061 24.1905 15.926 24.2254L15.4476 24.4295L15.2103 24.5285L14.7394 24.7204L14.274 24.9037L13.8144 25.0788L13.3609 25.2451L12.9138 25.403L12.4736 25.552C12.4008 25.5762 12.3283 25.6 12.2561 25.6234L11.8267 25.7593L11.4049 25.8862L10.9912 26.0042C10.8547 26.042 10.7195 26.0783 10.5858 26.1131L10.1891 26.2129L9.80139 26.3034C9.73754 26.3178 9.67409 26.3317 9.61104 26.3453L9.23752 26.4216L8.87389 26.4887L8.52049 26.5463L8.17765 26.5942C6.153 26.853 4.71737 26.589 4.20318 25.7228C3.84611 25.1213 3.96976 24.2908 4.49486 23.3116L4.62855 23.0737C4.67566 22.9936 4.72529 22.9124 4.77742 22.8305L4.94121 22.582L5.11969 22.3286L5.21435 22.2L5.41441 21.9396C5.44892 21.8959 5.48404 21.8519 5.51972 21.8078L5.7408 21.5409C5.81677 21.4513 5.89506 21.361 5.97557 21.2702L6.22383 20.9956L6.48531 20.7176L6.75976 20.4363L7.04695 20.152L7.34664 19.865C7.39761 19.8169 7.4491 19.7688 7.50109 19.7206L7.81907 19.4299L8.14891 19.1372L8.49042 18.8426L8.84331 18.5464L9.20736 18.2486L9.38643 18.1053Z" fill="url(#paint4_linear_1943_23788)"/>
<defs>
<linearGradient id="paint0_linear_1943_23788" x1="5.12908" y1="8.22228" x2="29.5745" y2="8.22228" gradientUnits="userSpaceOnUse">
<stop stop-color="#06E5FC"/>
<stop offset="1" stop-color="#DC5FC1"/>
</linearGradient>
<linearGradient id="paint1_linear_1943_23788" x1="4.37524" y1="28.5932" x2="29.9489" y2="28.5932" gradientUnits="userSpaceOnUse">
<stop stop-color="#06E5FC"/>
<stop offset="1" stop-color="#DC5FC1"/>
</linearGradient>
<linearGradient id="paint2_linear_1943_23788" x1="5.1273" y1="26.7412" x2="32.9574" y2="26.7412" gradientUnits="userSpaceOnUse">
<stop stop-color="#06E5FC"/>
<stop offset="1" stop-color="#DC5FC1"/>
</linearGradient>
<linearGradient id="paint3_linear_1943_23788" x1="4.37678" y1="26.0005" x2="29.1982" y2="26.0005" gradientUnits="userSpaceOnUse">
<stop stop-color="#06E5FC"/>
<stop offset="1" stop-color="#DC5FC1"/>
</linearGradient>
<linearGradient id="paint4_linear_1943_23788" x1="4" y1="26.7411" x2="33.3345" y2="26.7411" gradientUnits="userSpaceOnUse">
<stop stop-color="#06E5FC"/>
<stop offset="1" stop-color="#DC5FC1"/>
</linearGradient>
</defs>
</svg>
