<svg width="36" height="36" viewBox="0 0 36 36" fill="none" xmlns="http://www.w3.org/2000/svg">
<rect width="36" height="36" fill="#DEE8EA"/>
<g clip-path="url(#clip0_1943_23805)">
<path d="M18.0416 5.00151C12.7019 4.90649 8.13454 9.29933 8.00308 14.6683C7.91372 18.3123 9.77887 21.5234 12.6187 23.3207C12.7543 23.4064 12.933 23.3558 13.0049 23.2122L15.2192 18.7584C15.5448 18.1036 15.4955 17.3269 15.1001 16.7123C14.7622 16.1876 14.5681 15.5596 14.5753 14.8862C14.5927 13.1561 15.9618 11.7121 17.6801 11.6181C19.6654 11.5107 21.2933 13.1747 21.1403 15.1805C21.0181 16.7888 19.7281 18.086 18.1289 18.2152C18.1176 18.2152 18.1073 18.2172 18.0961 18.2172C17.3689 18.2688 16.7208 18.6944 16.3942 19.3492L14.1788 23.8041C14.1079 23.9477 14.1747 24.1222 14.3236 24.179C15.4401 24.6108 16.6551 24.8442 17.9246 24.8359C23.3218 24.8019 27.7186 20.3553 27.7238 14.9285C27.7309 9.50694 23.4091 5.09757 18.0416 5.00151Z" fill="#32253E"/>
<path d="M11.2876 31.4497C13.1033 31.4497 14.5753 29.9694 14.5753 28.1434C14.5753 26.3174 13.1033 24.8372 11.2876 24.8372C9.47192 24.8372 8 26.3174 8 28.1434C8 29.9694 9.47192 31.4497 11.2876 31.4497Z" fill="#32253E"/>
</g>
<defs>
<clipPath id="clip0_1943_23805">
<rect width="20" height="27" fill="white" transform="translate(8 5)"/>
</clipPath>
</defs>
</svg>
