<svg width="36" height="36" viewBox="0 0 36 36" fill="none" xmlns="http://www.w3.org/2000/svg">
<rect width="36" height="36" fill="#E6007A"/>
<path d="M29 13.4167C29 16.9605 26.1272 19.8333 22.5833 19.8333C19.0395 19.8333 16.1667 16.9605 16.1667 13.4167C16.1667 9.87284 19.0395 7 22.5833 7C26.1272 7 29 9.87284 29 13.4167Z" fill="white"/>
<path d="M16.1667 22.5833C16.1667 25.1146 14.1146 27.1667 11.5833 27.1667C9.05203 27.1667 7 25.1146 7 22.5833C7 20.052 9.05203 18 11.5833 18C14.1146 18 16.1667 20.052 16.1667 22.5833Z" fill="white"/>
<path d="M28.0833 25.7917C28.0833 27.5636 26.6469 29 24.875 29C23.1031 29 21.6667 27.5636 21.6667 25.7917C21.6667 24.0198 23.1031 22.5833 24.875 22.5833C26.6469 22.5833 28.0833 24.0198 28.0833 25.7917Z" fill="white"/>
<path d="M11.5833 11.5833C11.5833 12.5959 10.7625 13.4167 9.75 13.4167C8.73748 13.4167 7.91667 12.5959 7.91667 11.5833C7.91667 10.5708 8.73748 9.75 9.75 9.75C10.7625 9.75 11.5833 10.5708 11.5833 11.5833Z" fill="white"/>
</svg>
