<svg width="36" height="36" viewBox="0 0 36 36" fill="none" xmlns="http://www.w3.org/2000/svg">
<rect width="36" height="36" fill="#E6007A"/>
<g clip-path="url(#clip0_142_4095)">
<path d="M22.325 8.525C22.325 9.925 20.375 11.05 18 11.05C15.6 11.05 13.675 9.925 13.675 8.525C13.675 7.125 15.6 6 18 6C20.4 6 22.325 7.125 22.325 8.525ZM18 24.975C15.6 24.975 13.675 26.1 13.675 27.5C13.675 28.875 15.6 30 18 30C20.4 30 22.325 28.875 22.325 27.475C22.325 26.1 20.4 24.975 18 24.975ZM7.62502 17C8.82502 17.7 10.775 16.575 11.975 14.5C13.175 12.425 13.175 10.2 11.95 9.5C10.75 8.825 8.80002 9.925 7.60002 12C6.40002 14.075 6.40002 16.3 7.62502 17ZM28.375 19C27.175 18.3 25.225 19.425 24.025 21.5C22.825 23.575 22.825 25.8 24.05 26.5C25.25 27.2 27.2 26.075 28.4 24C29.6 21.925 29.575 19.7 28.375 19ZM7.62502 19C6.42502 19.7 6.40002 21.925 7.60002 24C8.80002 26.075 10.75 27.175 11.95 26.5C13.15 25.8 13.175 23.575 11.975 21.5C10.775 19.4 8.82502 18.3 7.62502 19ZM28.375 17C29.575 16.3 29.575 14.075 28.4 12C27.2 9.925 25.25 8.825 24.05 9.5C22.85 10.2 22.85 12.425 24.025 14.5C25.225 16.6 27.175 17.7 28.375 17Z" fill="white"/>
</g>
<defs>
<clipPath id="clip0_142_4095">
<rect width="24" height="24" fill="white" transform="translate(6 6)"/>
</clipPath>
</defs>
</svg>
