<svg width="36" height="36" viewBox="0 0 36 36" fill="none" xmlns="http://www.w3.org/2000/svg">
<rect width="36" height="36" fill="#FBE4FF"/>
<path d="M11.877 14.9053C11.9521 16.3018 13.0103 17.1611 14.6592 17.1611C16.3403 17.1611 17.3984 16.2642 17.3984 14.8354C17.3984 13.6646 16.7593 13.0039 15.2554 12.644L14.5464 12.4668C13.585 12.2358 13.1821 11.8706 13.1821 11.2368C13.1821 10.501 13.7407 10.0605 14.6699 10.0605C15.5347 10.0605 16.0986 10.5063 16.1846 11.2637H17.2588C17.1997 9.95312 16.1685 9.08838 14.6592 9.08838C13.0801 9.08838 12.0596 9.96387 12.0596 11.3174C12.0596 12.4453 12.7202 13.1436 14.1489 13.498L14.8579 13.6646C15.8623 13.9116 16.2759 14.2822 16.2759 14.9106C16.2759 15.6895 15.6475 16.189 14.6699 16.189C13.6816 16.189 13.0425 15.7109 12.9565 14.9053H11.877ZM21.9585 17V10.2432H24.2627V9.24951H18.5371V10.2432H20.8413V17H21.9585ZM12.7471 23.1372L12.6558 20.0112H12.7363L14.1865 24.1792H15.0137L16.4639 20.0112H16.5444L16.4531 23.1372V26H17.4253V18.2495H16.2061L14.6377 22.96H14.5625L12.9888 18.2495H11.7749V26H12.7471V23.1372ZM19.7725 26V20.1885H19.853L22.9897 26H24.021V18.2495H23.0273V24.0449H22.9468L19.8208 18.2495H18.7788V26H19.7725Z" fill="#FF00B8"/>
</svg>
