<svg width="36" height="36" viewBox="0 0 36 36" fill="none" xmlns="http://www.w3.org/2000/svg">
<rect width="36" height="36" fill="black"/>
<path fill-rule="evenodd" clip-rule="evenodd" d="M21.7831 15.3465C23.3706 13.4546 23.1239 10.6339 21.2319 9.04635C19.3465 7.46434 16.5389 7.70387 14.9483 9.57776L14.9437 9.56494C12.6228 10.4097 11.4262 12.9759 12.2709 15.2967C13.1156 17.6175 15.6819 18.8141 18.0026 17.9695L16.4732 13.7672L14.966 9.62638L18.3573 12.4721L21.7831 15.3465ZM21.0492 26.4069C23.3701 25.5621 24.5667 22.9959 23.7219 20.675C22.8773 18.3543 20.3111 17.1576 17.9902 18.0023L19.5198 22.2046L21.0492 26.4069ZM14.744 26.9535C12.8521 25.366 12.6053 22.5453 14.1928 20.6533L17.6185 23.5278L21.0441 26.4024C19.4567 28.2944 16.636 28.5411 14.744 26.9535Z" fill="white"/>
</svg>
