<svg width="36" height="36" viewBox="0 0 36 36" fill="none" xmlns="http://www.w3.org/2000/svg">
<rect width="36" height="36" fill="white"/>
<path d="M16.875 11.5631L23.2056 22.5582H21.8931L20.4138 19.9881C19.6146 19.7496 18.7846 19.63 17.9507 19.6338C17.4713 19.6335 16.9928 19.6734 16.5199 19.7532L17.2313 18.5181C17.4713 18.5019 17.7119 18.4944 17.9507 18.4944C18.5121 18.4949 19.0725 18.5399 19.6269 18.6288L16.8669 13.8275L12.2681 21.8144L11.6106 20.6731L16.8563 11.5625L16.8669 11.5812L16.875 11.5631ZM18.2187 20.4207C18.1381 20.4207 18.0568 20.4176 17.9755 20.4176C16.9756 20.4176 15.9132 20.5425 15.0156 20.8119L17.5318 16.4406L16.875 15.2988L12.6956 22.5574H14.0081L14.0337 22.5138L14.015 22.5468C15.2318 21.8922 16.5927 21.5522 17.9743 21.5576C18.9216 21.5598 19.8609 21.7291 20.7493 22.0575L19.9093 20.5988C19.3515 20.4944 18.7861 20.4348 18.2187 20.4207ZM30 18C30 24.625 24.625 30 18 30C11.375 30 6 24.625 6 18C6 11.375 11.375 6 18 6C24.625 6 30 11.3731 30 18ZM28.9226 18C28.9226 15.1158 27.7767 12.3497 25.7373 10.3102C23.6979 8.27076 20.9318 7.125 18.0476 7.125C15.1632 7.125 12.3972 8.27076 10.3577 10.3102C8.31825 12.3497 7.17251 15.1158 7.17251 18C7.17251 20.8842 8.31825 23.6503 10.3577 25.6897C12.3972 27.7293 15.1632 28.875 18.0476 28.875C20.9316 28.875 23.6976 27.7293 25.737 25.69C27.7766 23.6507 28.9224 20.8842 28.9226 18ZM28.0407 18C28.0407 19.3187 27.781 20.6242 27.2764 21.8426C26.772 23.0609 26.0323 24.1677 25.0999 25.1003C24.1677 26.0326 23.0607 26.7723 21.8426 27.2769C20.6242 27.7815 19.3187 28.0413 18 28.0413C16.6813 28.0413 15.3758 27.7815 14.1575 27.2769C12.9393 26.7723 11.8323 26.0326 10.9 25.1003C9.96762 24.1677 9.22804 23.0609 8.72349 21.8426C8.21894 20.6242 7.95929 19.3187 7.95938 18C7.95938 16.6815 8.21909 15.3757 8.72367 14.1576C9.22826 12.9394 9.96784 11.8326 10.9002 10.9002C12.7832 9.01722 15.337 7.95938 18 7.95938C19.3185 7.95938 20.6242 8.21909 21.8424 8.72367C23.0605 9.22826 24.1674 9.96784 25.0998 10.9002C26.0322 11.8326 26.7717 12.9394 27.2763 14.1576C27.7809 15.3757 28.0407 16.6815 28.0407 18ZM26.8656 17.9763C26.8658 16.8151 26.6373 15.6654 26.193 14.5926C25.7488 13.5198 25.0977 12.5451 24.2767 11.724C23.4558 10.9028 22.4812 10.2515 21.4084 9.80705C20.3358 9.36263 19.186 9.13383 18.025 9.13375C16.8639 9.13375 15.714 9.36247 14.6413 9.80686C13.5686 10.2513 12.5938 10.9026 11.7729 11.7237C10.9518 12.5449 10.3006 13.5196 9.8564 14.5925C9.41215 15.6652 9.18358 16.8151 9.18375 17.9763C9.18375 19.1373 9.41244 20.2869 9.85675 21.3596C10.3011 22.4322 10.9523 23.4067 11.7733 24.2277C12.5943 25.0487 13.569 25.6998 14.6416 26.1441C15.7143 26.5884 16.864 26.817 18.025 26.8168C19.186 26.817 20.3358 26.5886 21.4086 26.1443C22.4813 25.7001 23.4559 25.049 24.2771 24.228C25.0982 23.4071 25.7494 22.4324 26.1937 21.3597C26.6382 20.2871 26.8656 19.1373 26.8656 17.9763ZM17.4856 11.1888L23.6169 21.8337L24.2738 20.6925L18.8019 11.1888H17.4856Z" fill="url(#paint0_linear_4528_23434)"/>
<defs>
<linearGradient id="paint0_linear_4528_23434" x1="8.25" y1="7.5" x2="27.75" y2="30" gradientUnits="userSpaceOnUse">
<stop stop-color="#E95749"/>
<stop offset="1" stop-color="#8567C5"/>
</linearGradient>
</defs>
</svg>
