<svg width="36" height="36" viewBox="0 0 36 36" fill="none" xmlns="http://www.w3.org/2000/svg">
<rect width="36" height="36" fill="black"/>
<path d="M28.3732 17.2964C27.9839 11.5643 23.0231 7.23506 17.2936 7.62443C14.4394 7.81895 11.9331 9.14865 10.1838 11.1406L10.1786 11.1371C10.1661 11.1531 10.1553 11.169 10.1446 11.185C8.40744 13.1894 7.42984 15.8526 7.62397 18.7079C7.642 18.9804 7.67389 19.2474 7.71306 19.5123C7.71306 19.5251 7.71653 19.5355 7.71826 19.548C7.74496 19.7225 7.77546 19.8972 7.80909 20.0681C7.84097 20.2261 7.87657 20.3834 7.91587 20.5396C9.11742 25.33 13.6044 28.7228 18.7052 28.3757C24.4346 27.9859 28.7649 23.0247 28.3753 17.2929L28.3732 17.2964ZM26.1094 17.451C26.1576 18.1562 26.1129 18.8469 25.9867 19.5126C25.9867 19.5091 25.9832 19.5058 25.9832 19.5019C25.2281 17.6594 23.7368 16.328 22.4268 15.5926C22.692 12.4703 21.6328 11.1531 20.4333 10.9395C20.201 10.8958 19.9621 10.9001 19.7313 10.9522C19.5007 11.0042 19.2831 11.1028 19.0919 11.242C18.9008 11.3812 18.74 11.5581 18.6196 11.7616C18.4992 11.9652 18.4217 12.1913 18.3918 12.4259C18.3627 12.6522 18.3783 12.8821 18.4381 13.1024C18.4978 13.3226 18.6005 13.5289 18.74 13.7095C18.8796 13.89 19.0534 14.0413 19.2514 14.1546C19.4495 14.2678 19.668 14.341 19.8944 14.3697C19.9778 14.3804 20.0597 14.3839 20.1398 14.3822C20.1456 14.4936 20.1486 14.6051 20.1488 14.7167C19.0397 14.4428 18.0039 14.3874 17.0589 14.4729C16.7035 14.4963 16.3499 14.5409 15.9998 14.6064C16.1177 13.5524 16.5144 12.367 17.2815 11.5019C18.0234 10.6635 19.1271 10.1847 20.3301 10.3074C20.5581 10.3306 20.8019 10.3875 21.0207 10.4607C21.0313 10.4641 21.0421 10.4676 21.0511 10.4693C23.8384 11.6052 25.8906 14.2521 26.1077 17.451H26.1094ZM18.8602 19.0391L18.8585 19.0426C18.5955 19.4205 18.2976 19.7728 17.9685 20.0948C17.4702 19.5684 17.0484 18.9746 16.7153 18.3307C16.6995 18.2968 16.6818 18.2665 16.6654 18.2325V18.229C16.4703 17.8119 16.3142 17.3774 16.1992 16.9312C16.9376 16.7569 17.6621 16.6927 18.3548 16.7267L18.465 16.7319H18.4685C18.9028 16.7676 19.3549 16.8478 19.8229 16.976C19.6056 17.7066 19.2818 18.4011 18.8619 19.0372L18.8602 19.0391ZM15.3076 10.3289L15.3024 10.3358C14.0831 11.9096 13.6772 13.8659 13.6952 15.3682C10.858 16.6997 10.2493 18.2752 10.6622 19.4215C10.6726 19.4538 10.6854 19.4839 10.6979 19.5143C10.8758 19.9394 11.2151 20.2764 11.6413 20.4512C12.0674 20.6261 12.5456 20.6247 12.9706 20.4471C13.3956 20.2691 13.7325 19.9298 13.9073 19.5035C14.0822 19.0773 14.0807 18.5991 13.9032 18.1739C13.8709 18.0985 13.8335 18.0252 13.7912 17.9549C13.8803 17.8958 13.9763 17.8376 14.0796 17.7769C14.3961 18.8754 14.8645 19.8029 15.4109 20.5789C15.6085 20.8726 15.822 21.1555 16.0549 21.4279C15.0832 21.8534 13.8588 22.1028 12.7249 21.8711C11.6287 21.6471 10.6622 20.9315 10.1657 19.8275C10.0706 19.6109 9.99906 19.3849 9.95221 19.1531C9.92293 18.954 9.90096 18.754 9.88633 18.5532C9.63326 14.8273 11.9438 11.5109 15.3076 10.3289ZM18.5503 26.1133C16.3382 26.2645 14.2699 25.5101 12.7072 24.1674C14.6794 24.4365 16.5768 23.8097 17.8691 23.0427C20.4406 24.8352 22.1102 24.5752 22.8968 23.6443C23.0509 23.4646 23.1667 23.2553 23.237 23.0293C23.3074 22.8032 23.3306 22.5652 23.3057 22.3297C23.2807 22.0943 23.2079 21.8666 23.0917 21.6604C22.9755 21.4541 22.8183 21.2738 22.6299 21.1305C22.4485 20.9922 22.2415 20.8909 22.0209 20.8325C21.8003 20.7742 21.5703 20.7599 21.3441 20.7905C21.118 20.8211 20.9002 20.896 20.703 21.0108C20.5057 21.1257 20.3331 21.2783 20.1949 21.4599C20.1453 21.5257 20.1005 21.5972 20.0614 21.6683C19.9672 21.6201 19.8673 21.5666 19.766 21.508C20.4907 20.7604 21.0845 19.8963 21.5226 18.9517C21.6795 18.6319 21.8173 18.3033 21.9355 17.9673C22.7901 18.5977 23.6192 19.5321 23.9861 20.6301C24.3404 21.6912 24.2048 22.8873 23.4965 23.8686C23.3566 24.059 23.1967 24.2339 23.0196 24.3901L23.0127 24.397C21.7327 25.4053 20.178 26.003 18.5524 26.1116L18.5503 26.1133Z" fill="url(#paint0_linear_4553_23890)"/>
<path style="mix-blend-mode:overlay" opacity="0.9" d="M20.415 11.5291C20.2728 11.4927 20.1268 11.4904 19.9839 11.5223C20.7097 12.0528 21.2379 13.5318 20.9604 16.4509C20.8684 17.4003 20.661 18.3229 20.3465 19.1818C20.0754 19.9655 19.7226 20.6932 19.2988 21.3429C19.4998 21.5463 19.71 21.7323 19.9283 21.9C20.4569 21.1668 20.8899 20.3193 21.2096 19.3929C21.5249 18.5346 21.7323 17.6118 21.8234 16.6622C22.1547 13.1876 21.342 11.7525 20.4153 11.5304L20.415 11.5291Z" fill="url(#paint1_radial_4553_23890)"/>
<g style="mix-blend-mode:overlay" opacity="0.8">
<path d="M21.7904 16.0672C22.1905 13.3635 21.4297 11.9919 20.3848 11.5C20.3436 11.5047 20.3048 11.5129 20.2632 11.5211C21.2859 12.0306 22.0219 13.3992 21.6276 16.0672C21.4953 16.9469 21.1967 17.8018 20.7438 18.5975C20.3676 19.2981 19.8814 19.9501 19.2988 20.5354C19.3324 20.5581 19.3643 20.5792 19.3979 20.6C20.0076 19.9976 20.5155 19.3233 20.9061 18.5972C21.3602 17.8018 21.6591 16.947 21.7904 16.0672Z" fill="white"/>
</g>
<path style="mix-blend-mode:overlay" opacity="0.5" d="M17.5142 22.2284C17.4164 22.1228 17.324 22.0114 17.2301 21.9001C15.7072 22.8108 13.5969 23.3818 11.5 22.6835C11.8415 23.3104 12.2255 23.8873 12.6462 24.4059C14.6918 24.8058 16.6596 23.8739 18 22.734C17.8353 22.569 17.6727 22.3996 17.5125 22.2258L17.5142 22.2284Z" fill="url(#paint2_radial_4553_23890)"/>
<path style="mix-blend-mode:overlay" opacity="0.6" d="M16.6997 22.0717C16.659 22.0144 16.6168 21.9575 16.5777 21.9001C15.222 22.8055 13.348 23.3485 11.5 22.5765C11.5457 22.6774 11.5915 22.781 11.6369 22.8793C13.4884 23.5992 15.354 23.0106 16.6997 22.0717Z" fill="url(#paint3_linear_4553_23890)"/>
<path style="mix-blend-mode:overlay" opacity="0.9" d="M10.3262 18.8123C10.3374 18.8425 10.3513 18.8712 10.3648 18.8998C10.4362 19.0479 10.5285 19.1805 10.6403 19.3001C10.6095 18.2304 11.6308 16.9234 14.6251 15.8302C15.6007 15.4761 16.6364 15.2647 17.6907 15.2046C18.6413 15.1306 19.5991 15.176 20.535 15.3392C20.5834 14.986 20.6025 14.6565 20.5987 14.3653C19.5058 14.1252 18.3743 14.0473 17.2516 14.135C16.1972 14.1952 15.1613 14.4066 14.1857 14.7607C10.6193 16.0626 9.85027 17.6655 10.3266 18.8139L10.3262 18.8123Z" fill="url(#paint4_radial_4553_23890)"/>
<g style="mix-blend-mode:overlay" opacity="0.8">
<path d="M15.1652 16.2159C12.4115 17.5654 11.472 19.1782 11.5006 20.4982C11.5255 20.5335 11.5521 20.567 11.5786 20.6002C11.5766 19.2903 12.5264 17.7045 15.2432 16.3717C16.1403 15.9346 17.0929 15.6737 18.0624 15.5995C18.9053 15.5121 19.7543 15.5611 20.5858 15.7449C20.5914 15.6994 20.5961 15.6537 20.6 15.6079C19.7393 15.4076 18.8585 15.3517 17.9844 15.4421C17.0149 15.5166 16.0623 15.7774 15.1652 16.2143V16.2159Z" fill="white"/>
</g>
<path style="mix-blend-mode:overlay" opacity="0.4" d="M21.9571 15.9511C21.9424 16.0634 21.9215 16.172 21.9004 16.2826C23.2432 17.204 24.6786 18.7049 25.3219 20.6001C25.5344 20.1259 25.6947 19.6341 25.8004 19.1317C25.0002 17.3722 23.4155 16.1021 22.0234 15.4001C22.0065 15.5789 21.9855 15.7608 21.959 15.9511H21.9571Z" fill="url(#paint5_radial_4553_23890)"/>
<path style="mix-blend-mode:overlay" opacity="0.5" d="M21.9371 16.7002C21.9241 16.7625 21.9133 16.8269 21.9004 16.8892C23.4029 17.9685 24.9992 19.7126 25.6851 21.9002C25.7255 21.8167 25.7641 21.7325 25.8004 21.649C25.0741 19.4765 23.4542 17.7581 21.9346 16.7002H21.9371Z" fill="url(#paint6_linear_4553_23890)"/>
<path style="mix-blend-mode:overlay" opacity="0.9" d="M22.8977 23.698C23.0261 23.5304 23.1281 23.3402 23.1996 23.1353C22.2358 23.7884 20.5723 23.649 18.1924 21.6393C17.4188 20.9841 16.7482 20.1915 16.2081 19.2936C15.7026 18.4964 15.3028 17.6231 15.0205 16.7002C14.6763 16.8635 14.3658 17.0405 14.0996 17.2138C14.3842 18.3209 14.834 19.3671 15.4305 20.3093C15.9629 21.1909 16.6267 21.9881 17.4149 22.655C20.2476 25.0479 22.067 24.79 22.8957 23.6976L22.8977 23.698Z" fill="url(#paint7_radial_4553_23890)"/>
<g style="mix-blend-mode:overlay" opacity="0.8">
<path d="M18.4088 21.4456C20.6671 23.3566 22.248 23.4897 23.1629 22.868C23.1765 22.8289 23.1883 22.7897 23.1984 22.7521C22.2783 23.3457 20.7108 23.1899 18.4827 21.3053C17.7481 20.682 17.1113 19.928 16.5983 19.0739C16.1361 18.3424 15.7669 17.5436 15.5011 16.7002C15.4658 16.717 15.4322 16.7319 15.3984 16.7487C15.6662 17.6267 16.0458 18.4575 16.5258 19.2161C17.0314 20.0546 17.6616 20.813 18.4101 21.4474L18.4088 21.4456Z" fill="white"/>
</g>
<path style="mix-blend-mode:overlay" opacity="0.3" d="M14.5371 15.1743C14.6263 15.1312 14.7154 15.092 14.806 15.0526C14.9728 13.5366 15.5355 11.6562 16.6996 10.2002C16.2639 10.2735 15.8353 10.3935 15.4201 10.5628C14.4185 12.0755 14.0852 13.9558 14.1001 15.4002C14.2387 15.3235 14.3836 15.2478 14.5357 15.1745L14.5371 15.1743Z" fill="url(#paint8_radial_4553_23890)"/>
<path style="mix-blend-mode:overlay" opacity="0.4" d="M14.0996 15.4002C14.1562 15.3803 14.2105 15.3583 14.2668 15.3384C14.4988 13.7238 15.2283 11.7308 16.6996 10.2002C16.6163 10.2094 16.5324 10.2204 16.4491 10.2314C15.0049 11.7836 14.3067 13.7841 14.1 15.3984L14.0996 15.4002Z" fill="url(#paint9_linear_4553_23890)"/>
<path style="mix-blend-mode:multiply" opacity="0.4" d="M17.1363 7.62682C14.3662 7.83426 11.9349 9.25493 10.2372 11.3831L10.1992 11.4306C10.5289 11.7921 11.61 12.5034 12.0469 12.8001C12.9176 11.7671 14.0037 10.9831 15.2112 10.5159C15.296 10.394 15.3854 10.2744 15.4789 10.1584C16.6186 8.7415 18.1746 7.99393 19.9809 7.99393C20.1814 7.99393 20.5908 8.03024 20.5992 8.03024C19.4752 7.67416 18.303 7.53788 17.1363 7.62682Z" fill="url(#paint10_linear_4553_23890)"/>
<path style="mix-blend-mode:multiply" opacity="0.4" d="M19.1309 26.1291C16.7322 26.2791 14.4896 25.5305 12.795 24.1986C12.6359 24.1795 12.4775 24.1553 12.3202 24.126C10.4384 23.7744 8.91002 22.7429 7.90259 21.1444C7.79166 20.9677 7.69054 20.7861 7.59961 20.6001C8.9025 25.3537 13.7678 28.7205 19.297 28.3758C19.3222 27.8549 19.1541 26.6452 19.129 26.1291H19.1309Z" fill="url(#paint11_linear_4553_23890)"/>
<path style="mix-blend-mode:multiply" opacity="0.4" d="M28.3788 16.7061C28.1152 16.6702 26.8315 16.8072 26.5154 16.8783C26.5548 17.6634 26.5182 18.4322 26.4141 19.1733C26.4581 19.32 26.5006 19.4705 26.5385 19.623C27.0002 21.4938 26.839 23.4299 26.0742 25.2251C25.9895 25.4228 25.8976 25.6148 25.7988 25.8002C25.7988 25.8002 25.8031 25.7959 25.8045 25.7922C27.5438 23.5033 28.556 20.2374 28.3788 16.708V16.7061Z" fill="url(#paint12_linear_4553_23890)"/>
<path style="mix-blend-mode:multiply" opacity="0.5" d="M20.2305 10.5362C20.4648 10.5494 20.7154 10.5817 20.9409 10.6231C20.9515 10.6251 20.963 10.6271 20.9718 10.6281C21.8901 10.8347 22.7349 11.1293 23.467 11.4982L23.4723 11.5002C23.8239 11.2792 24.4992 11.036 24.4992 11.036C24.4992 11.036 23.4652 10.4525 21.8818 10.2708C20.7743 10.1436 18.2756 10.0215 16.6992 11.5002L16.7138 11.4923C16.8312 11.3952 16.9538 11.3004 17.0947 11.2135C17.858 10.7381 18.9929 10.4664 20.2305 10.5362Z" fill="url(#paint13_linear_4553_23890)"/>
<path style="mix-blend-mode:multiply" opacity="0.5" d="M23.6064 24.1635C23.4683 24.3408 23.3105 24.5037 23.1356 24.6493C23.1289 24.6558 23.1199 24.6626 23.1128 24.6694C22.3609 25.2195 21.5119 25.6399 20.6051 25.9112C20.6051 25.9112 20.6017 25.9112 20.5996 25.9128C20.7648 26.3705 20.807 27.1001 20.807 27.1001C20.807 27.1001 22.182 26.7687 23.2151 25.6757C23.9368 24.9113 25.3204 23.0509 23.8486 20.6001C23.8486 20.6001 23.8507 20.6082 23.854 20.6182C23.9453 20.7894 24.0278 20.9647 24.091 21.1456C24.4406 22.134 24.3069 23.2482 23.6081 24.162L23.6064 24.1635Z" fill="url(#paint14_linear_4553_23890)"/>
<path style="mix-blend-mode:multiply" opacity="0.5" d="M10.1249 19.6589C10.0449 19.4304 9.98475 19.1916 9.94534 18.9469C9.94389 18.9359 9.94098 18.9242 9.93952 18.9129C9.82894 17.9004 9.86473 16.8747 10.0367 15.8869V15.8809C9.60923 15.7756 9.02228 15.4001 9.02228 15.4001C9.02228 15.4001 8.69634 16.8638 9.11045 18.4379C9.40029 19.5404 10.2622 21.8756 12.8004 21.9001C12.8004 21.9001 12.7931 21.8979 12.7841 21.8943C12.6124 21.8812 12.4407 21.8588 12.2719 21.8156C11.3515 21.5789 10.5402 20.8236 10.1231 19.6589H10.1249Z" fill="url(#paint15_linear_4553_23890)"/>
<path style="mix-blend-mode:multiply" opacity="0.6" d="M20.2378 14.0886C20.3611 14.098 20.4818 14.1012 20.6 14.0996C20.6 14.0996 20.5186 13.1237 20.3243 12.622C20.1273 12.1218 19.8382 11.7889 19.5231 11.601C19.2949 11.466 18.5777 11.2984 18.0212 12.3307C17.9779 12.5351 18.0011 12.7428 18.0892 12.9418C18.1772 13.1407 18.3285 13.3271 18.5344 13.4902C18.7404 13.6534 18.9969 13.79 19.2891 13.8924C19.5813 13.9947 19.9037 14.0608 20.2378 14.0868V14.0886Z" fill="url(#paint16_linear_4553_23890)"/>
<path style="mix-blend-mode:multiply" opacity="0.5" d="M13.9478 18.2226C13.9109 18.1459 13.8682 18.0715 13.82 18C13.82 18 12.7857 18.5974 12.3162 18.9955C11.8467 19.394 11.5956 19.7543 11.5128 20.0492C11.4541 20.2611 11.5471 20.7827 12.887 20.5345C13.3702 20.3535 13.7533 20.0084 13.9521 19.5748C14.151 19.1413 14.1497 18.6549 13.9478 18.2226Z" fill="url(#paint17_linear_4553_23890)"/>
<path style="mix-blend-mode:multiply" opacity="0.6" d="M20.7136 21.1254C20.671 21.1761 20.633 21.2311 20.5996 21.2856C20.5996 21.2856 21.422 21.6652 21.8886 21.7897C22.3551 21.9146 22.7107 21.9256 22.9555 21.8623C23.1319 21.8173 23.4753 21.5638 22.7926 20.8736C22.6376 20.7671 22.4609 20.6893 22.2726 20.6444C22.0842 20.5996 21.8879 20.5886 21.6949 20.6122C21.5018 20.6357 21.3158 20.6933 21.1474 20.7816C20.9789 20.87 20.8317 20.9874 20.7136 21.1271V21.1254Z" fill="url(#paint18_linear_4553_23890)"/>
<path style="mix-blend-mode:multiply" opacity="0.3" d="M19.8221 16.7002C19.6073 17.5336 19.3059 18.2915 18.9367 18.9591C18.9172 18.9937 18.8982 19.0286 18.877 19.0653C18.877 19.0653 18.877 19.0672 18.8753 19.0693C18.6166 19.5029 18.3236 19.9072 18 20.2766C18.2347 20.5667 18.4866 20.8484 18.7652 21.116C19.0815 21.4065 19.4161 21.6685 19.7662 21.9002C20.479 21.0425 21.0632 20.0511 21.4943 18.9674C21.6484 18.6004 21.7839 18.2231 21.9 17.8376C21.5396 17.5292 21.1754 17.2822 20.8396 17.1148C20.5085 16.9491 20.168 16.8107 19.8204 16.7002H19.8221Z" fill="url(#paint19_linear_4553_23890)"/>
<path style="mix-blend-mode:multiply" opacity="0.3" d="M12.915 24.4352C14.8572 24.7104 16.7263 24.0688 17.9992 23.2831C17.8427 23.1694 17.6884 23.0526 17.5362 22.933C17.052 22.5478 16.608 22.1112 16.2112 21.6299C15.2537 22.0653 14.0477 22.3205 12.9307 22.0833C11.8509 21.8539 10.8989 21.1211 10.4096 19.991C10.3159 19.7692 10.2454 19.5376 10.1992 19.3C10.4816 21.3598 11.4808 23.157 12.9133 24.4348L12.915 24.4352Z" fill="url(#paint20_linear_4553_23890)"/>
<path style="mix-blend-mode:multiply" opacity="0.3" d="M17.9979 20.3581C17.4986 19.7495 17.0758 19.0628 16.742 18.3184C16.726 18.2792 16.7079 18.2443 16.6919 18.2049V18.2009C16.4963 17.7185 16.3399 17.216 16.2246 16.7002C15.8854 16.7928 15.5448 16.9083 15.2023 17.0567C14.8219 17.232 14.4533 17.4398 14.0996 17.6782C14.4172 18.9484 14.8864 20.0209 15.4341 20.9183C15.632 21.2579 15.8465 21.5851 16.0804 21.9002C16.4973 21.6901 16.8706 21.4412 17.168 21.1836C17.461 20.9297 17.739 20.6532 17.9996 20.3561L17.9979 20.3581Z" fill="url(#paint21_linear_4553_23890)"/>
<path style="mix-blend-mode:multiply" opacity="0.3" d="M15.5201 10.6424C14.4428 12.1303 14.0842 13.9798 14.1001 15.4002C14.2553 15.3222 14.4121 15.2477 14.5703 15.1766C15.0743 14.9513 15.5994 14.7837 16.1364 14.6767C16.2406 13.6802 16.5909 12.5594 17.2689 11.7416C17.9243 10.9489 18.8996 10.4959 19.9627 10.6123C20.164 10.6342 20.3794 10.688 20.5729 10.7572C20.5822 10.7604 20.5917 10.7637 20.5996 10.7654C19.5905 10.3247 18.5004 10.1376 17.413 10.2186C16.7528 10.2674 16.1204 10.4104 15.5228 10.6359C15.5214 10.6375 15.5198 10.6408 15.5183 10.6424H15.5201Z" fill="url(#paint22_linear_4553_23890)"/>
<path style="mix-blend-mode:multiply" opacity="0.3" d="M25.7934 19.4383C25.0678 17.5351 23.633 16.1595 22.3729 15.4001C22.3576 15.5936 22.3389 15.792 22.3129 15.9997C22.2364 16.6332 22.0983 17.2562 21.9004 17.8586C22.7224 18.5096 23.5199 19.4749 23.8728 20.6095C24.2132 21.7054 24.0831 22.9411 23.4019 23.9543C23.2673 24.151 23.1135 24.3315 22.9431 24.493L22.9364 24.5001C24.4052 23.261 25.4439 21.4737 25.8004 19.4512C25.8004 19.4477 25.797 19.4437 25.797 19.4402L25.7934 19.4383Z" fill="url(#paint23_linear_4553_23890)"/>
<path style="mix-blend-mode:multiply" opacity="0.3" d="M15.4398 15.5553C15.4939 15.926 15.5786 16.2932 15.6937 16.6544C16.6111 16.4761 17.5103 16.4106 18.3704 16.4453L18.5073 16.4506H18.5116C19.0511 16.487 19.6123 16.5689 20.1939 16.7001C20.3174 16.3599 20.4216 16.0066 20.4965 15.6389C20.5783 15.1807 20.6025 14.7565 20.6003 14.3872C19.2236 14.1071 17.9373 14.0504 16.7638 14.1379C16.3226 14.1619 15.8835 14.2074 15.4488 14.2744C15.3867 14.7366 15.3843 15.1751 15.4419 15.5539L15.4398 15.5553Z" fill="url(#paint24_linear_4553_23890)"/>
<defs>
<linearGradient id="paint0_linear_4553_23890" x1="10.9024" y1="25.1006" x2="24.1643" y2="11.839" gradientUnits="userSpaceOnUse">
<stop stop-color="#E6007A"/>
<stop offset="0.21" stop-color="#703AC2"/>
<stop offset="0.46" stop-color="#0070EB"/>
<stop offset="0.77" stop-color="#0297FB"/>
<stop offset="1" stop-color="#0AE2FF"/>
</linearGradient>
<radialGradient id="paint1_radial_4553_23890" cx="0" cy="0" r="1" gradientUnits="userSpaceOnUse" gradientTransform="translate(20.8018 16.3915) scale(2.8841 3.87958)">
<stop stop-color="white"/>
<stop offset="1" stop-color="white" stop-opacity="0"/>
</radialGradient>
<radialGradient id="paint2_radial_4553_23890" cx="0" cy="0" r="1" gradientUnits="userSpaceOnUse" gradientTransform="translate(15.1499 23.017) scale(2.38685 3.4212)">
<stop stop-color="white"/>
<stop offset="1" stop-color="white" stop-opacity="0"/>
</radialGradient>
<linearGradient id="paint3_linear_4553_23890" x1="11.6957" y1="22.6259" x2="13.7286" y2="22.6092" gradientUnits="userSpaceOnUse">
<stop stop-color="white" stop-opacity="0"/>
<stop offset="1" stop-color="white"/>
</linearGradient>
<radialGradient id="paint4_radial_4553_23890" cx="0" cy="0" r="1" gradientUnits="userSpaceOnUse" gradientTransform="translate(14.6894 16.0367) rotate(-123.484) scale(3.88043 4.12355)">
<stop stop-color="white"/>
<stop offset="1" stop-color="white" stop-opacity="0"/>
</radialGradient>
<radialGradient id="paint5_radial_4553_23890" cx="0" cy="0" r="1" gradientUnits="userSpaceOnUse" gradientTransform="translate(23.6597 17.5844) rotate(-122.714) scale(2.26239 2.37582)">
<stop stop-color="white"/>
<stop offset="1" stop-color="white" stop-opacity="0"/>
</radialGradient>
<linearGradient id="paint6_linear_4553_23890" x1="25.5915" y1="21.6775" x2="24.4059" y2="19.4953" gradientUnits="userSpaceOnUse">
<stop stop-color="white" stop-opacity="0"/>
<stop offset="1" stop-color="white"/>
</linearGradient>
<radialGradient id="paint7_radial_4553_23890" cx="0" cy="0" r="1" gradientUnits="userSpaceOnUse" gradientTransform="translate(18.1667 21.2614) rotate(117.507) scale(4.26945 4.0391)">
<stop stop-color="white"/>
<stop offset="1" stop-color="white" stop-opacity="0"/>
</radialGradient>
<radialGradient id="paint8_radial_4553_23890" cx="0" cy="0" r="1" gradientUnits="userSpaceOnUse" gradientTransform="translate(15.0968 13.0207) rotate(116.257) scale(2.13641 1.95753)">
<stop stop-color="white"/>
<stop offset="1" stop-color="white" stop-opacity="0"/>
</radialGradient>
<linearGradient id="paint9_linear_4553_23890" x1="16.5632" y1="10.3737" x2="15.4538" y2="12.3524" gradientUnits="userSpaceOnUse">
<stop stop-color="white" stop-opacity="0"/>
<stop offset="1" stop-color="white"/>
</linearGradient>
<linearGradient id="paint10_linear_4553_23890" x1="17.292" y1="9.21307" x2="13.9579" y2="10.0938" gradientUnits="userSpaceOnUse">
<stop stop-color="#231F20"/>
<stop offset="1" stop-color="white"/>
</linearGradient>
<linearGradient id="paint11_linear_4553_23890" x1="11.0001" y1="22.0788" x2="13.7909" y2="25.2615" gradientUnits="userSpaceOnUse">
<stop stop-color="#231F20"/>
<stop offset="1" stop-color="white"/>
</linearGradient>
<linearGradient id="paint12_linear_4553_23890" x1="26.6384" y1="21.4838" x2="28.0119" y2="18.3966" gradientUnits="userSpaceOnUse">
<stop stop-color="#231F20"/>
<stop offset="1" stop-color="white"/>
</linearGradient>
<linearGradient id="paint13_linear_4553_23890" x1="18.8575" y1="10.8309" x2="23.0515" y2="12.5718" gradientUnits="userSpaceOnUse">
<stop stop-color="#231F20"/>
<stop offset="1" stop-color="white"/>
</linearGradient>
<linearGradient id="paint14_linear_4553_23890" x1="23.8219" y1="22.8442" x2="20.8821" y2="26.194" gradientUnits="userSpaceOnUse">
<stop stop-color="#231F20"/>
<stop offset="1" stop-color="white"/>
</linearGradient>
<linearGradient id="paint15_linear_4553_23890" x1="11.0619" y1="20.6048" x2="9.33138" y2="16.1279" gradientUnits="userSpaceOnUse">
<stop stop-color="#231F20"/>
<stop offset="1" stop-color="white"/>
</linearGradient>
<linearGradient id="paint16_linear_4553_23890" x1="20.3795" y1="12.4015" x2="19.2246" y2="14.2906" gradientUnits="userSpaceOnUse">
<stop stop-color="#231F20"/>
<stop offset="1" stop-color="white"/>
</linearGradient>
<linearGradient id="paint17_linear_4553_23890" x1="12.0552" y1="19.0847" x2="14.2503" y2="19.7438" gradientUnits="userSpaceOnUse">
<stop stop-color="#231F20"/>
<stop offset="1" stop-color="white"/>
</linearGradient>
<linearGradient id="paint18_linear_4553_23890" x1="22.0525" y1="21.9084" x2="21.6832" y2="20.3792" gradientUnits="userSpaceOnUse">
<stop stop-color="#231F20"/>
<stop offset="1" stop-color="white"/>
</linearGradient>
<linearGradient id="paint19_linear_4553_23890" x1="18.7931" y1="21.0055" x2="19.8209" y2="19.7906" gradientUnits="userSpaceOnUse">
<stop stop-color="#231F20"/>
<stop offset="1" stop-color="white"/>
</linearGradient>
<linearGradient id="paint20_linear_4553_23890" x1="15.9691" y1="20.3848" x2="14.2464" y2="21.1748" gradientUnits="userSpaceOnUse">
<stop stop-color="#231F20"/>
<stop offset="1" stop-color="white"/>
</linearGradient>
<linearGradient id="paint21_linear_4553_23890" x1="15.2023" y1="17.1757" x2="15.8729" y2="18.3832" gradientUnits="userSpaceOnUse">
<stop stop-color="#231F20"/>
<stop offset="1" stop-color="white"/>
</linearGradient>
<linearGradient id="paint22_linear_4553_23890" x1="17.607" y1="14.0287" x2="17.2382" y2="12.8387" gradientUnits="userSpaceOnUse">
<stop stop-color="#231F20"/>
<stop offset="1" stop-color="white"/>
</linearGradient>
<linearGradient id="paint23_linear_4553_23890" x1="21.6217" y1="19.6955" x2="22.6556" y2="19.9171" gradientUnits="userSpaceOnUse">
<stop stop-color="#231F20"/>
<stop offset="1" stop-color="white"/>
</linearGradient>
<linearGradient id="paint24_linear_4553_23890" x1="20.3794" y1="15.8448" x2="18.7227" y2="15.4797" gradientUnits="userSpaceOnUse">
<stop stop-color="#231F20"/>
<stop offset="1" stop-color="white"/>
</linearGradient>
</defs>
</svg>
