<svg width="36" height="36" viewBox="0 0 36 36" fill="none" xmlns="http://www.w3.org/2000/svg">
<rect width="36" height="36" fill="#FBE4FF"/>
<path d="M16.48 17H17.667L15.2231 9.24951H13.9771L11.5332 17H12.6611L13.2842 14.8623H15.8623L16.48 17ZM14.5571 10.4902H14.5947L15.5991 13.9546H13.5474L14.5571 10.4902ZM21.3999 16.1353C20.3472 16.1353 19.7402 15.437 19.7402 14.2285V9.24951H18.623V14.2983C18.623 16.0923 19.6597 17.1611 21.3999 17.1611C23.1401 17.1611 24.1768 16.0923 24.1768 14.2983V9.24951H23.0596V14.2285C23.0596 15.437 22.4526 16.1353 21.3999 16.1353ZM11.877 23.9053C11.9521 25.3018 13.0103 26.1611 14.6592 26.1611C16.3403 26.1611 17.3984 25.2642 17.3984 23.8354C17.3984 22.6646 16.7593 22.0039 15.2554 21.644L14.5464 21.4668C13.585 21.2358 13.1821 20.8706 13.1821 20.2368C13.1821 19.501 13.7407 19.0605 14.6699 19.0605C15.5347 19.0605 16.0986 19.5063 16.1846 20.2637H17.2588C17.1997 18.9531 16.1685 18.0884 14.6592 18.0884C13.0801 18.0884 12.0596 18.9639 12.0596 20.3174C12.0596 21.4453 12.7202 22.1436 14.1489 22.498L14.8579 22.6646C15.8623 22.9116 16.2759 23.2822 16.2759 23.9106C16.2759 24.6895 15.6475 25.189 14.6699 25.189C13.6816 25.189 13.0425 24.7109 12.9565 23.9053H11.877ZM18.7949 18.2495V26H21.0615C23.2583 26 24.3647 24.6895 24.3647 22.1006C24.3647 19.5493 23.2476 18.2495 21.0615 18.2495H18.7949ZM19.9175 19.2432H20.938C22.4849 19.2432 23.2207 20.167 23.2207 22.1113C23.2207 24.0933 22.4956 25.0063 20.938 25.0063H19.9175V19.2432Z" fill="#FF00B8"/>
</svg>
