<svg width="36" height="36" viewBox="0 0 36 36" fill="none" xmlns="http://www.w3.org/2000/svg">
<rect width="36" height="36" fill="#C0FF00"/>
<path fill-rule="evenodd" clip-rule="evenodd" d="M22.4727 7C24.9635 7 27 8.96144 27 11.4C27 12.6723 26.4546 13.8562 25.4728 14.7044C26.4364 15.5349 27 16.7366 27 17.9912C27 19.2634 26.4364 20.4651 25.4728 21.2956C26.4364 22.1437 27 23.3454 27 24.6C27 27.0209 24.9819 29 22.4727 29H9V7H22.4727ZM21.7818 9.20883H11.8182V13.5735H21.7818H21.9091C23.1454 13.5381 24.1272 12.5309 24.0909 11.3293C24.0545 10.1277 23.0182 9.17349 21.7818 9.20883ZM21.7818 15.8H11.8182V20.1646H21.7818H21.9091C23.1454 20.1293 24.1272 19.1222 24.0909 17.9205C24.0545 16.7188 23.0182 15.7646 21.7818 15.8ZM11.8182 26.7734H21.7818C23.0364 26.7734 24.0364 25.8017 24.0364 24.6C24.0364 23.3807 23.0182 22.4088 21.7818 22.4088H11.8182V26.7734Z" fill="black"/>
</svg>
