<svg width="36" height="36" viewBox="0 0 36 36" fill="none" xmlns="http://www.w3.org/2000/svg">
<rect width="36" height="36" fill="url(#paint0_linear_4518_23349)"/>
<path fill-rule="evenodd" clip-rule="evenodd" d="M18 7C11.375 7 6 11.9144 6 18C6 24.0856 11.375 29 18 29C24.625 29 30 24.0856 30 18C30 11.9144 24.625 7 18 7ZM18.25 28.4398C17.25 28.4398 13.8 21.9722 13.8 18.2546C13.8 14.5116 16.75 7.56019 18.25 7.56019C19.725 7.56019 22.2 14.0023 22.2 18.2546C22.2 22.4815 19.225 28.4398 18.25 28.4398Z" fill="#4FFFB0"/>
<defs>
<linearGradient id="paint0_linear_4518_23349" x1="0" y1="0" x2="36" y2="36" gradientUnits="userSpaceOnUse">
<stop stop-color="#3C3C3C"/>
<stop offset="1"/>
</linearGradient>
</defs>
</svg>
