<svg width="36" height="36" viewBox="0 0 36 36" fill="none" xmlns="http://www.w3.org/2000/svg">
<rect width="36" height="36" fill="white"/>
<path fill-rule="evenodd" clip-rule="evenodd" d="M30 10.7749L28.692 11.8505C27.5765 10.5399 26.1829 9.48604 24.6094 8.76318C23.0357 8.04031 21.3204 7.66595 19.584 7.66649C16.43 7.66649 13.4053 8.90051 11.1751 11.0971C8.9449 13.2936 7.69198 16.2728 7.69198 19.3792C7.68709 21.091 8.06826 22.7824 8.80797 24.3314L7.25999 25.0406C6.42873 23.2656 5.99884 21.334 6 19.3792C6 15.8309 7.43117 12.4278 9.97866 9.91869C12.5262 7.4096 15.9814 6.00001 19.584 6.00001C21.5689 5.99803 23.5302 6.42453 25.3297 7.24949C27.1292 8.07445 28.7234 9.27783 30 10.7749ZM19.584 9.75849C16.9944 9.76161 14.5117 10.7762 12.6805 12.5798C10.8493 14.3834 9.81917 16.8287 9.81599 19.3792C9.81599 21.9309 10.8451 24.3779 12.677 26.1822C14.5088 27.9864 16.9933 29 19.584 29V27.3335C18.524 27.3335 17.4744 27.1277 16.4952 26.7278C15.5161 26.3279 14.6266 25.7418 13.8776 25.003C13.1287 24.2643 12.5349 23.3873 12.1304 22.4223C11.7258 21.4573 11.5184 20.4232 11.52 19.3792C11.5327 17.281 12.3879 15.2729 13.8988 13.7936C15.4097 12.3143 17.4536 11.484 19.584 11.4841C20.7624 11.4812 21.9269 11.7339 22.9949 12.2241C24.063 12.7143 25.0084 13.4301 25.764 14.3207L27.072 13.2451C26.1594 12.1591 25.0157 11.2839 23.7217 10.6814C22.4278 10.0789 21.0152 9.76383 19.584 9.75849ZM19.584 15.6208C20.1427 15.619 20.6948 15.7862 21.201 16.0191C21.7073 16.252 22.1549 16.5923 22.512 17.0154L23.976 15.8335C23.437 15.2034 22.7645 14.6971 22.0058 14.35C21.2471 14.0029 20.4205 13.8235 19.584 13.8243C18.8314 13.8227 18.0857 13.9674 17.3898 14.25C16.6939 14.5326 16.0615 14.9477 15.5287 15.4714C14.9959 15.995 14.5733 16.617 14.2849 17.3018C13.9965 17.9866 13.848 18.7207 13.848 19.462C13.848 20.9603 14.4523 22.3973 15.528 23.4568C16.6037 24.5163 18.0628 25.1115 19.584 25.1115C20.3585 25.0995 21.1224 24.9329 21.8298 24.6222C22.5372 24.3114 23.1734 23.8627 23.7 23.3032L22.5 21.7903C22.1429 22.2135 21.6952 22.5537 21.189 22.7867C20.6828 23.0195 20.1307 23.1395 19.572 23.1377C19.0688 23.1408 18.57 23.0459 18.1043 22.8584C17.6386 22.671 17.2151 22.3946 16.8582 22.0453C16.5013 21.696 16.218 21.2806 16.0247 20.8231C15.8315 20.3655 15.732 19.8748 15.732 19.3792C15.732 18.8827 15.8318 18.391 16.0259 17.9327C16.2198 17.4744 16.5042 17.0584 16.8623 16.7089C17.2205 16.3595 17.6454 16.0834 18.1126 15.8966C18.5797 15.7099 19.0799 15.616 19.584 15.6208Z" fill="black"/>
</svg>
