<svg width="36" height="36" viewBox="0 0 36 36" fill="none" xmlns="http://www.w3.org/2000/svg">
<rect width="36" height="36" fill="url(#paint0_linear_4553_23963)"/>
<path fill-rule="evenodd" clip-rule="evenodd" d="M26.8649 11.5758C27.4421 11.5758 27.9099 12.0371 27.9099 12.6061C27.9099 13.1631 27.4615 13.617 26.9011 13.6357L25.6243 15.524L25.6104 15.5442C25.3229 15.9553 24.8514 16.204 24.345 16.2119L24.3201 16.2122L22.7725 16.212C22.9176 16.5392 23.0291 16.884 23.1029 17.2424H26.3934L26.4103 17.2422C26.5729 17.237 26.724 17.1572 26.8187 17.0266L26.8282 17.013L28.0575 15.195C27.9637 15.0404 27.9099 14.8598 27.9099 14.6667C27.9099 14.0976 28.3778 13.6363 28.955 13.6363C29.5322 13.6363 30 14.0976 30 14.6667C30 15.2294 29.5425 15.6867 28.9741 15.6968L27.6976 17.5845L27.6837 17.6049C27.3961 18.0159 26.9247 18.2647 26.4183 18.2726L26.3934 18.2727H23.2073C23.2074 18.6256 23.1714 18.9702 23.1029 19.3031H26.3934C26.9093 19.3031 27.3913 19.5531 27.6837 19.9709L27.6976 19.9913L28.9741 21.8789C29.5425 21.8891 30 22.3464 30 22.9091C30 23.4781 29.5322 23.9394 28.955 23.9394C28.3778 23.9394 27.9099 23.4781 27.9099 22.9091C27.9099 22.7161 27.9637 22.5354 28.0575 22.3809L26.8282 20.5628C26.7343 20.424 26.5786 20.339 26.4103 20.3336L26.3934 20.3333L22.7725 20.3334C22.6095 20.7013 22.4041 21.0467 22.1626 21.3638L24.3034 21.3636C24.8191 21.3636 25.3014 21.6138 25.5936 22.0314L25.6077 22.0518L26.8841 23.9396C27.4524 23.9496 27.9099 24.4069 27.9099 24.9696C27.9099 25.5387 27.4421 26 26.8649 26C26.2878 26 25.82 25.5387 25.82 24.9696C25.82 24.7766 25.8738 24.596 25.9676 24.4414L24.7381 22.6233C24.6444 22.4847 24.4885 22.3996 24.3202 22.3943L24.3034 22.394L21.1176 22.3941C20.2443 23.0409 19.1588 23.4242 17.9823 23.4242C16.8059 23.4242 15.7201 23.0409 14.8468 22.3941L11.6966 22.394L11.6797 22.3943C11.5171 22.3994 11.3661 22.4791 11.2714 22.6096L11.2619 22.6233L10.0325 24.4416C10.1262 24.596 10.1801 24.7766 10.1801 24.9696C10.1801 25.5387 9.71222 26 9.13508 26C8.55792 26 8.09004 25.5387 8.09004 24.9696C8.09004 24.4069 8.5476 23.9496 9.11592 23.9396L10.3924 22.0518L10.4064 22.0314C10.6939 21.6205 11.1653 21.3718 11.6717 21.3638L11.6966 21.3636L13.8019 21.3638C13.5603 21.0467 13.3549 20.7013 13.192 20.3334L9.60658 20.3333L9.58972 20.3336C9.42703 20.3388 9.27602 20.4184 9.18143 20.549L9.17184 20.5628L7.94246 22.3809C8.03618 22.5354 8.09004 22.7161 8.09004 22.9091C8.09004 23.4781 7.62218 23.9394 7.04502 23.9394C6.46788 23.9394 6 23.4781 6 22.9091C6 22.3464 6.45756 21.8891 7.02586 21.8789L8.30232 19.9913L8.31631 19.9709C8.60388 19.5599 9.07529 19.3111 9.58166 19.3032L9.60658 19.3031H12.8616C12.7972 18.9898 12.7615 18.666 12.7575 18.3349L12.7572 18.2727H9.60658C9.09079 18.2727 8.60859 18.0227 8.31631 17.6049L8.30232 17.5845L7.02586 15.6968C6.45756 15.6867 6 15.2294 6 14.6667C6 14.0976 6.46788 13.6363 7.04502 13.6363C7.62218 13.6363 8.09004 14.0976 8.09004 14.6667C8.09004 14.8597 8.03618 15.0404 7.94246 15.1948L9.17184 17.013C9.26562 17.1518 9.42142 17.2368 9.58972 17.2422L9.60658 17.2424H12.8616C12.9355 16.884 13.047 16.5392 13.192 16.212L11.6799 16.2122C11.1641 16.2122 10.6819 15.962 10.3896 15.5442L10.3756 15.524L9.09883 13.6357C8.53846 13.617 8.09004 13.1631 8.09004 12.6061C8.09004 12.0371 8.55792 11.5758 9.13508 11.5758C9.71222 11.5758 10.1801 12.0371 10.1801 12.6061C10.1801 12.8046 10.1232 12.99 10.0245 13.1472L11.2452 14.9524C11.3389 15.0911 11.4948 15.1762 11.663 15.1815L11.6799 15.1818L13.8019 15.1817C14.7552 13.9305 16.2729 13.1212 17.9823 13.1212C19.6917 13.1212 21.2094 13.9305 22.1626 15.1817L24.3201 15.1818L24.3371 15.1815C24.4997 15.1764 24.6507 15.0967 24.7454 14.9661L24.7548 14.9524L25.9755 13.1472C25.8768 12.99 25.82 12.8046 25.82 12.6061C25.82 12.0371 26.2878 11.5758 26.8649 11.5758ZM17.9823 14.1515C15.6737 14.1515 13.8021 15.9966 13.8021 18.2727C13.8021 20.5489 15.6737 22.394 17.9823 22.394C20.2908 22.394 22.1624 20.5489 22.1624 18.2727C22.1624 15.9966 20.2908 14.1515 17.9823 14.1515ZM17.9823 15.1818C19.7138 15.1818 21.1173 16.5656 21.1173 18.2727C21.1173 19.9798 19.7138 21.3636 17.9823 21.3636C16.2509 21.3636 14.8472 19.9798 14.8472 18.2727C14.8472 16.5656 16.2509 15.1818 17.9823 15.1818ZM21.6398 9L21.6744 9.00028C22.8128 9.01847 23.7298 9.93395 23.7298 11.0606C23.7298 12.1986 22.7942 13.1212 21.6398 13.1212C20.4855 13.1212 19.5498 12.1986 19.5498 11.0606C19.5498 10.5014 19.7757 9.99421 20.1424 9.62296L20.162 9.60353L21.6398 11.0606V9ZM14.3247 9V11.0606L15.8025 9.60353C16.1808 9.97643 16.4146 10.4916 16.4146 11.0606C16.4146 12.1986 15.479 13.1212 14.3247 13.1212C13.1704 13.1212 12.2346 12.1986 12.2346 11.0606C12.2346 9.93395 13.1517 9.01847 14.2901 9.00028L14.3247 9Z" fill="white"/>
<defs>
<linearGradient id="paint0_linear_4553_23963" x1="18" y1="0" x2="18" y2="36" gradientUnits="userSpaceOnUse">
<stop stop-color="#3916EA"/>
<stop offset="1" stop-color="#BD297C"/>
</linearGradient>
</defs>
</svg>
