<svg width="36" height="36" viewBox="0 0 36 36" fill="none" xmlns="http://www.w3.org/2000/svg">
<rect width="36" height="36" fill="white"/>
<path d="M26.0035 13.2073L21.9947 15.6142L26.0035 18.0282L29.9988 15.6142L26.0035 13.2143V13.2073ZM9.99531 13.2073L6 15.6142L9.99531 18.0282L14.0041 15.6142L9.99531 13.2143V13.2073Z" fill="#C9EEFF"/>
<path d="M14.0059 25.2207V29.9992L18.0012 27.5994V22.8137L14.0059 25.2136V25.2207Z" fill="#5178E5"/>
<path d="M21.9955 15.6283V20.4069L18.0002 18.007V13.2213L21.9955 15.6212V15.6283ZM14.0049 10.8144V15.593L9.99609 13.1931V8.40039L14.0049 10.8003V10.8144ZM21.9955 25.1997V29.9782L18.0002 27.5783V22.7998L21.9955 25.1997ZM14.0049 15.6424V20.4281L9.99609 18.0211V13.2355L14.0049 15.6424Z" fill="#59A8FE"/>
<path d="M14.0049 20.428V25.1994L9.99609 22.7995V18.021L14.0049 20.4209V20.428Z" fill="#59A8FE"/>
<path d="M9.99531 18.021V22.7995L6 20.3996V15.614L9.99531 18.021ZM17.9994 22.8137V27.5924L14.0041 25.1925V20.4138L17.9994 22.8137ZM14.0041 25.1994V29.9781L9.99531 27.5782V22.7995L14.0041 25.1994Z" fill="#59A8FE"/>
<path d="M21.9964 10.8144V15.593L26.0052 13.1931V8.40039L21.9964 10.8003V10.8144ZM14.0059 15.6283V20.4069L18.0012 18.007V13.2213L14.0059 15.6212V15.6283Z" fill="#5176E6"/>
<path d="M18.0002 18L14.0049 20.3999L18.0002 22.8138L21.9955 20.4069L18.0002 18ZM14.0049 10.8214L9.99609 13.2284L14.0049 15.6424L18.0002 13.2284L14.0049 10.8285V10.8214ZM18.0002 8.40038L14.0049 10.8214L18.0002 13.2284L21.9955 10.8285L18.0002 8.40744V8.40038ZM21.9955 6.00049L18.0002 8.40038L21.9955 10.8214L26.0043 8.40744L21.9955 6.00049Z" fill="#C9EEFF"/>
<path d="M14.0049 6.00049L9.99609 8.40038L14.0049 10.8214L18.0002 8.40744L14.0049 6.00049ZM21.9955 10.7932L18.0002 13.2072L21.9955 15.6071L26.0043 13.2072L21.9955 10.8003V10.7932Z" fill="#C9EEFF"/>
<path d="M6 15.614L9.99531 18.0492M14.0041 25.2207V29.9781" stroke="white" stroke-width="0.43" stroke-miterlimit="10" stroke-linecap="round" stroke-linejoin="round"/>
<path d="M26.0043 8.40039L21.9955 10.8497M9.99609 8.40039L14.0049 10.8426" stroke="white" stroke-width="0.43" stroke-miterlimit="10" stroke-linecap="round" stroke-linejoin="round"/>
<path d="M21.9961 15.6282V20.4067L26.0049 18.0068V13.2212L22.0028 15.6211L21.9961 15.6282Z" fill="#5176E6"/>
<path d="M21.9961 20.4067V25.1854L26.0049 22.7855V17.9999L22.0028 20.4067H21.9961ZM26.0049 18.021V22.7995L30.0002 20.3996V15.614L26.0049 18.0139V18.021Z" fill="#5176E6"/>
<path d="M18 22.7998V27.5854L22.0021 25.1855V20.407L18 22.8069V22.7998Z" fill="#5176E6"/>
<path d="M21.9961 25.1855V29.9712L26.0049 27.5642V22.7786L22.0028 25.1855H21.9961Z" fill="#5176E6"/>
<path d="M26.0043 18.0282L22.0022 20.4069M22.1305 10.8497L18.0002 13.2143M26.2675 13.3696L18.0002 8.40039L9.99609 13.2002M21.928 20.3575L18.0002 17.9576V13.2213L14.0049 10.8144M18.0002 17.9364L13.9779 20.3646" stroke="#002445" stroke-width="0.43" stroke-miterlimit="10" stroke-linejoin="round"/>
<path d="M14.0059 15.6423L18.0012 13.2283L21.9964 15.6423" stroke="white" stroke-width="0.43" stroke-miterlimit="10" stroke-linecap="round" stroke-linejoin="round"/>
<path d="M21.9961 29.9782V25.1997M30.0002 15.6001L26.0049 18.0282" stroke="white" stroke-width="0.43" stroke-miterlimit="10" stroke-linecap="round" stroke-linejoin="round"/>
<path d="M9.99531 8.40038V13.2072L6 15.6141V20.3928L9.99531 22.7998V27.5854L14.0041 29.9853L17.9994 27.5854L21.9947 29.9853L26.0035 27.5854V22.7998L29.9988 20.3999V15.6141L26.0035 13.2143V8.40038L21.9947 6.00049L17.9994 8.40038L14.0041 6.00049L9.99531 8.40038Z" stroke="#002445" stroke-width="0.43" stroke-miterlimit="10" stroke-linejoin="round"/>
<path d="M26.0044 22.9123V13.3269M10.0098 18.0208L14.0051 20.4207" stroke="#002445" stroke-width="0.43" stroke-miterlimit="10" stroke-linejoin="round"/>
<path d="M14.0049 20.4281V25.2208M9.99609 13.2073V22.8068M21.9955 25.1997V20.3999" stroke="#002445" stroke-width="0.43" stroke-miterlimit="10" stroke-linejoin="round"/>
<path d="M9.99609 13.2073L14.0049 15.6425V20.414L18.0002 22.8139M18.0002 22.8139V27.5996M18.0002 22.8139L21.9955 20.414V15.6425L26.0043 13.2073" stroke="white" stroke-width="0.43" stroke-miterlimit="10" stroke-linecap="round" stroke-linejoin="round"/>
<path d="M17.8205 27.4437C17.7189 27.5051 17.6862 27.6373 17.7476 27.7389C17.8089 27.8406 17.9411 27.8732 18.0428 27.8119L17.8205 27.4437ZM25.8179 22.6157L17.8205 27.4437L18.0428 27.8119L26.0402 22.9839L25.8179 22.6157Z" fill="#002445"/>
<path d="M17.8893 27.8043C17.991 27.8655 18.1232 27.8327 18.1844 27.731C18.2457 27.6293 18.2129 27.4972 18.1112 27.4359L17.8893 27.8043ZM9.88516 22.9832L17.8893 27.8043L18.1112 27.4359L10.107 22.6149L9.88516 22.9832Z" fill="#002445"/>
</svg>
