<svg width="36" height="36" viewBox="0 0 36 36" fill="none" xmlns="http://www.w3.org/2000/svg">
<rect width="36" height="36" fill="white"/>
<path d="M7.30426 23.0643C7.21752 23.0643 7.13273 23.0905 7.0606 23.1397C6.98849 23.1887 6.93228 23.2585 6.89908 23.3401C6.86588 23.4217 6.85721 23.5116 6.87413 23.5983C6.89105 23.6849 6.93281 23.7646 6.99415 23.827C7.05548 23.8896 7.13364 23.9322 7.2187 23.9493C7.30377 23.9666 7.39196 23.9577 7.47209 23.9239C7.55223 23.89 7.62071 23.8328 7.66891 23.7593C7.7171 23.6858 7.74283 23.5994 7.74283 23.5111C7.74283 23.3926 7.69661 23.279 7.61437 23.1952C7.53212 23.1114 7.42057 23.0643 7.30426 23.0643ZM11.3815 21.0421C11.307 21.0421 11.2337 21.0618 11.1688 21.0992C11.104 21.1366 11.0498 21.1906 11.0116 21.2558C10.9734 21.321 10.9524 21.3953 10.9508 21.4713C10.9492 21.5471 10.9669 21.6223 11.0023 21.689L11.0092 21.7029C11.0462 21.7727 11.101 21.8307 11.1677 21.8712C11.2344 21.9118 11.3107 21.9333 11.3884 21.9333H26.0459C26.1236 21.9333 26.1998 21.9118 26.2665 21.8712C26.3332 21.8307 26.388 21.7727 26.4251 21.7029L26.432 21.689C26.4676 21.6224 26.4856 21.5475 26.4843 21.4716C26.4829 21.3958 26.4622 21.3215 26.4242 21.2563C26.3861 21.1911 26.3322 21.137 26.2674 21.0995C26.2027 21.0619 26.1295 21.0421 26.0551 21.0421H11.3815ZM10.9521 17.4794C10.9578 17.5914 11.0056 17.6969 11.0855 17.7739C11.1655 17.851 11.2714 17.8939 11.3815 17.8936H28.0012C28.1111 17.8939 28.2172 17.851 28.2971 17.7739C28.377 17.6969 28.4249 17.5914 28.4305 17.4794V17.4655C28.4345 17.4059 28.4264 17.346 28.4068 17.2897C28.387 17.2335 28.3562 17.1819 28.3161 17.1382C28.2761 17.0947 28.2277 17.0599 28.1738 17.036C28.12 17.0123 28.0621 17 28.0033 17H11.3815C11.3228 17.0002 11.2648 17.0125 11.2109 17.0363C11.1571 17.0602 11.1086 17.0948 11.0684 17.1385C11.0281 17.1821 10.9971 17.2335 10.9771 17.2897C10.9571 17.346 10.9486 17.4058 10.9521 17.4655V17.4794ZM21.7447 27.1064H14.255C13.8004 27.1064 13.6565 27.7301 14.0631 27.9395L14.0905 27.9535C14.1501 27.9838 14.2158 27.9998 14.2824 28H21.7174C21.784 27.9998 21.8496 27.9838 21.9093 27.9535L21.9367 27.9395C22.3432 27.7301 22.1994 27.1064 21.7447 27.1064ZM26.3222 25.0842H18.8325C18.3778 25.0842 18.234 25.7079 18.6407 25.9172L18.6679 25.9313C18.7276 25.9617 18.7932 25.9776 18.8599 25.9778H26.2949C26.3614 25.9776 26.4272 25.9617 26.4867 25.9313L26.5142 25.9172C26.9206 25.7079 26.7768 25.0842 26.3222 25.0842ZM28.5676 23.0643H16.4089C16.0343 23.0643 15.8379 23.5228 16.0938 23.802L16.1074 23.8159C16.1482 23.8599 16.1974 23.895 16.252 23.919C16.3066 23.9431 16.3655 23.9556 16.425 23.9556H28.554C28.613 23.9552 28.6714 23.9428 28.7255 23.9187C28.7798 23.8947 28.8286 23.8598 28.8691 23.8159L28.8829 23.802C29.1409 23.5228 28.9445 23.0643 28.5676 23.0643ZM14.8375 23.9114L14.8649 23.8974C15.2714 23.688 15.1275 23.0643 14.673 23.0643H8.86664C8.41208 23.0643 8.26818 23.688 8.67476 23.8974L8.70217 23.9114C8.76174 23.9418 8.82742 23.9577 8.89404 23.9579H14.6456C14.7122 23.9577 14.7779 23.9418 14.8375 23.9114ZM9.81913 17.8936C9.90587 17.8936 9.99066 17.8674 10.0628 17.8184C10.1349 17.7692 10.1911 17.6995 10.2243 17.6178C10.2575 17.5362 10.2662 17.4463 10.2493 17.3597C10.2323 17.273 10.1906 17.1934 10.1292 17.1309C10.0679 17.0685 9.98976 17.0259 9.90469 17.0086C9.81962 16.9914 9.73144 17.0002 9.65131 17.034C9.57116 17.0679 9.50266 17.1251 9.45449 17.1986C9.40629 17.2721 9.38057 17.3585 9.38057 17.4468C9.38057 17.5653 9.42678 17.6789 9.50903 17.7627C9.59128 17.8466 9.70283 17.8936 9.81913 17.8936ZM20.573 19.5877C20.5753 19.583 20.5753 19.5784 20.5776 19.5737C20.5947 19.5088 20.597 19.4408 20.5842 19.3748C20.5713 19.3088 20.5437 19.2467 20.5035 19.1934C20.4633 19.14 20.4115 19.0968 20.3523 19.0672C20.293 19.0375 20.2278 19.0221 20.1619 19.0222H8.00093C7.93489 19.0221 7.86971 19.0374 7.81045 19.067C7.75118 19.0968 7.69943 19.1398 7.65922 19.1932C7.619 19.2465 7.5914 19.3086 7.57856 19.3746C7.56573 19.4406 7.568 19.5088 7.58522 19.5737C7.5875 19.5784 7.5875 19.583 7.58979 19.5877C7.61446 19.6809 7.66851 19.7632 7.74363 19.8222C7.81873 19.881 7.91074 19.9131 8.0055 19.9134H20.1573C20.2522 19.9136 20.3443 19.8816 20.4196 19.8227C20.4948 19.7637 20.5487 19.6812 20.573 19.5877ZM6.43856 19.0222C6.35182 19.0222 6.26703 19.0484 6.19491 19.0976C6.12279 19.1466 6.06657 19.2164 6.03338 19.298C6.0002 19.3796 5.9915 19.4695 6.00843 19.5562C6.02534 19.6428 6.06711 19.7225 6.12846 19.7849C6.18979 19.8475 6.26793 19.89 6.353 19.9072C6.43807 19.9245 6.52625 19.9156 6.60638 19.8818C6.68653 19.8479 6.75502 19.7907 6.80322 19.7172C6.85139 19.6437 6.87712 19.5575 6.87712 19.469C6.87712 19.3506 6.83091 19.2369 6.74868 19.1531C6.66643 19.0693 6.55488 19.0222 6.43856 19.0222ZM9.38057 21.4889C9.38057 21.5773 9.40629 21.6636 9.45449 21.7371C9.50266 21.8106 9.57116 21.8678 9.65131 21.9017C9.73144 21.9355 9.81962 21.9444 9.90469 21.9271C9.98976 21.9099 10.0679 21.8673 10.1292 21.8048C10.1906 21.7424 10.2323 21.6627 10.2493 21.5761C10.2662 21.4894 10.2575 21.3995 10.2243 21.3179C10.1911 21.2363 10.1349 21.1664 10.0628 21.1175C9.99066 21.0683 9.90587 21.0421 9.81913 21.0421C9.70283 21.0421 9.59128 21.0892 9.50903 21.173C9.42678 21.2568 9.38057 21.3705 9.38057 21.4889ZM17.7064 25.531C17.7064 25.4425 17.6806 25.3563 17.6325 25.2828C17.5843 25.2093 17.5158 25.1521 17.4356 25.1182C17.3556 25.0844 17.2672 25.0755 17.1823 25.0928C17.0972 25.11 17.019 25.1525 16.9577 25.2151C16.8963 25.2775 16.8546 25.3572 16.8376 25.4438C16.8207 25.5305 16.8295 25.6204 16.8626 25.702C16.8959 25.7836 16.952 25.8534 17.0242 25.9024C17.0963 25.9516 17.1811 25.9778 17.2679 25.9778C17.3841 25.9778 17.4957 25.9307 17.5779 25.8469C17.6602 25.7631 17.7064 25.6496 17.7064 25.531ZM12.6903 27.1064C12.6036 27.1064 12.5188 27.1326 12.4467 27.1816C12.3746 27.2308 12.3184 27.3005 12.2852 27.3822C12.252 27.4638 12.2433 27.5537 12.2602 27.6404C12.2771 27.727 12.3189 27.8066 12.3802 27.8691C12.4416 27.9317 12.5197 27.9741 12.6048 27.9914C12.6898 28.0086 12.778 27.9998 12.8582 27.966C12.9383 27.9321 13.0068 27.8749 13.055 27.8014C13.1032 27.7279 13.1289 27.6415 13.1289 27.5532C13.1289 27.4347 13.0827 27.3211 13.0004 27.2373C12.9182 27.1535 12.8066 27.1064 12.6903 27.1064Z" fill="#E1147B"/>
<path d="M13 15.6654V15.6908C13.005 15.7746 13.0435 15.8534 13.1077 15.9109C13.1718 15.9683 13.2566 16.0003 13.3447 16H26.6553C26.7434 16.0003 26.8282 15.9683 26.8924 15.9109C26.9564 15.8534 26.9951 15.7746 27 15.6908V15.6654C27 11.9834 23.867 9 20 9C16.1332 9 13 11.9855 13 15.6654Z" fill="#53CBC8"/>
</svg>
