<svg width="36" height="36" viewBox="0 0 36 36" fill="none" xmlns="http://www.w3.org/2000/svg">
<rect width="36" height="36" fill="white"/>
<path fill-rule="evenodd" clip-rule="evenodd" d="M21.969 10.1485C21.969 11.335 20.2352 12.2969 18.0968 12.2969C15.9581 12.2969 14.2246 11.335 14.2246 10.1485C14.2246 8.9619 15.9581 8 18.0968 8C20.2352 8 21.969 8.9619 21.969 10.1485ZM20.0359 24.9919C18.4823 24.3753 17.5963 24.2662 17.0355 24.2698C15.413 24.5258 14.2246 25.3543 14.2246 26.3367C14.2246 27.5232 15.9581 28.4852 18.0968 28.4852C20.1543 28.4852 21.8371 27.5946 21.9615 26.4704C21.4319 25.7111 20.9124 25.3967 20.0359 24.9919ZM22.7517 23.1465C24.1087 23.2806 25.4442 23.6802 26.5209 24.4919C26.8389 24.1705 27.1366 23.7911 27.3951 23.364C28.4643 21.5971 28.458 19.684 27.3808 19.0908C26.3037 18.4975 24.5638 19.4488 23.4945 21.2155C23.1023 21.8636 22.8548 22.5312 22.7517 23.1465ZM12.7006 15.2708C13.7698 13.504 13.7629 11.5904 12.6851 10.9968C11.6073 10.4031 9.8667 11.3541 8.79743 13.1209C7.72817 14.8877 7.7351 16.8013 8.81293 17.3949C9.89075 17.9886 11.6313 17.0376 12.7006 15.2708ZM12.6851 25.4883C13.7629 24.8946 13.7699 22.9812 12.7006 21.2143C11.6313 19.4476 9.89075 18.4965 8.81293 19.0902C7.7351 19.6839 7.72817 21.5974 8.79743 23.3642C9.8667 25.1311 11.6073 26.082 12.6851 25.4883ZM27.3951 13.1224C28.4643 14.8892 28.458 16.8025 27.3808 17.3957C26.3037 17.989 24.5638 17.0377 23.4945 15.2709C22.4253 13.5041 22.4316 11.5909 23.5087 10.9976C24.5858 10.4043 26.3257 11.3556 27.3951 13.1224ZM20.6443 24.2518C22.1029 23.8191 25.2134 23.7533 26.4118 26.0206C27.7149 28.4862 28.6643 29.0484 29.7086 28.5984C29.8734 28.5274 30.0823 28.7223 29.9666 28.8548C29.1646 29.772 28.5386 29.8838 27.8285 29.9707C25.9838 30.1963 24.7336 29.0693 24.0706 28.2401C23.7882 27.9639 23.5662 27.4837 23.3303 26.9744C23.0119 26.2865 22.669 25.5454 22.1206 25.1817C21.4037 24.7738 20.9592 24.6126 20.6547 24.5221C20.4972 24.4753 20.4868 24.2986 20.6443 24.2518Z" fill="url(#paint0_linear_4553_23927)"/>
<defs>
<linearGradient id="paint0_linear_4553_23927" x1="25.4149" y1="23.9962" x2="22.0659" y2="27.8558" gradientUnits="userSpaceOnUse">
<stop stop-color="#549EFD"/>
<stop offset="1" stop-color="#6EBDFF"/>
</linearGradient>
</defs>
</svg>
