<svg width="36" height="36" viewBox="0 0 36 36" fill="none" xmlns="http://www.w3.org/2000/svg">
<rect width="36" height="36" fill="white"/>
<path fill-rule="evenodd" clip-rule="evenodd" d="M5.52149 7.85511C5.58534 7.64423 5.77971 7.5 6.00004 7.5H24.4616C24.5603 7.5 24.6568 7.52922 24.7389 7.58397L30.2774 11.2763C30.4607 11.3985 30.5424 11.6263 30.4786 11.8372C30.4147 12.0481 30.2204 12.1923 30 12.1923H11.5385C11.4398 12.1923 11.3433 12.1631 11.2612 12.1083L5.72269 8.41603C5.53936 8.29381 5.45764 8.06599 5.52149 7.85511ZM7.65143 8.5L11.6899 11.1923H28.3487L24.3102 8.5H7.65143ZM5.52149 24.4706C5.58534 24.2597 5.77971 24.1155 6.00004 24.1155H24.4616C24.5603 24.1155 24.6568 24.1447 24.7389 24.1995L30.2774 27.8918C30.4607 28.014 30.5424 28.2418 30.4786 28.4527C30.4147 28.6636 30.2204 28.8078 30 28.8078H11.5385C11.4398 28.8078 11.3433 28.7786 11.2612 28.7238L5.72269 25.0315C5.53936 24.9093 5.45764 24.6815 5.52149 24.4706ZM7.65143 25.1155L11.6899 27.8078H28.3487L24.3102 25.1155H7.65143ZM17.9997 20.923C19.5291 20.923 20.769 19.6832 20.769 18.1538C20.769 16.6243 19.5291 15.3845 17.9997 15.3845C16.4703 15.3845 15.2305 16.6243 15.2305 18.1538C15.2305 19.6832 16.4703 20.923 17.9997 20.923Z" fill="black"/>
</svg>
