<svg width="36" height="36" viewBox="0 0 36 36" fill="none" xmlns="http://www.w3.org/2000/svg">
<rect width="36" height="36" fill="url(#paint0_linear_4553_23967)"/>
<path d="M22.9523 9L16.6564 14.5946C16.0045 15.1736 15.1564 15.4959 14.2756 15.4989L12.3991 15.5032L12.3927 9.00062H9V27.5842H10.8503C11.8852 27.5842 12.8503 27.0479 13.3565 26.1667C13.361 26.1605 13.363 26.1541 13.3668 26.1504C13.7028 25.5601 13.8711 24.3943 13.8385 23.5981C13.7655 21.7781 13.466 21.305 13.466 21.305C13.4033 22.5523 12.0708 22.62 12.0708 22.62C13.0186 21.735 12.5021 21.0652 12.5021 21.0652C10.824 22.2337 10.4048 20.9865 10.3728 20.8732C10.4253 20.9169 10.9028 21.3069 11.8103 20.0908C12.7697 18.806 14.049 16.6637 14.8632 16.113C15.6785 15.5602 16.4524 15.606 16.4524 15.606C16.4524 15.606 16.8977 15.0157 18.0759 14.5251C19.2535 14.0375 20.0088 14.7529 20.0088 14.7529C18.8044 15.7029 17.1691 17.2633 17.0777 19.4994C17.0047 21.3088 20.9932 24.4136 20.2923 29C20.7116 27.9584 20.8799 26.9152 20.7359 25.6241C20.6206 24.582 19.9339 22.4058 19.9339 22.4058L23.7643 27.5818H28L19.7215 16.4602L28 9H22.9523Z" fill="white"/>
<defs>
<linearGradient id="paint0_linear_4553_23967" x1="18" y1="0" x2="18" y2="36" gradientUnits="userSpaceOnUse">
<stop stop-color="#E70B5C"/>
<stop offset="1" stop-color="#F9413F"/>
</linearGradient>
</defs>
</svg>
