<svg width="36" height="36" viewBox="0 0 36 36" fill="none" xmlns="http://www.w3.org/2000/svg">
<rect width="36" height="36" fill="black"/>
<path fill-rule="evenodd" clip-rule="evenodd" d="M28.8694 14.0717C27.6525 13.3548 26.0747 14.0343 25.7568 15.4246C25.5488 16.3346 25.8852 17.2262 26.6373 17.7873C26.7536 17.8747 26.7413 17.9494 26.7168 18.049C26.5823 18.6476 26.3194 19.1837 25.9586 19.67C24.9741 20.8794 23.4148 21.4405 21.9045 21.0914C21.7627 21.0599 21.6166 21.0121 21.4704 20.9643L21.4654 20.9627L21.4647 20.9624C21.0076 20.813 20.5508 20.6636 20.2228 20.9979C19.9047 21.3221 19.9233 21.6462 20.0087 21.9455C20.3635 23.1862 20.2351 24.4641 19.5562 25.5489C18.9265 26.5525 17.6975 27.0762 16.8535 27.2757C16.8417 27.2785 16.8295 27.2818 16.817 27.2851L16.8168 27.2851C16.6921 27.3174 16.5337 27.3584 16.456 27.1884C16.1441 26.484 15.5388 26.1411 14.805 26.0477C12.3406 25.8232 11.564 29.1398 13.7348 30.2306C14.7927 30.7607 16.1258 30.2681 16.5844 29.1585C16.6394 29.0276 16.7067 28.9715 16.8474 28.9589C17.7156 28.8779 18.529 28.5911 19.2627 28.1174C19.9598 27.6685 20.5346 27.0762 20.9749 26.3655C21.6048 25.3431 21.88 24.2209 21.8433 23.0115C21.8431 23.0054 21.8429 22.9994 21.8428 22.9936C21.8399 22.8923 21.8385 22.8423 21.864 22.8214C21.8887 22.8012 21.9386 22.8081 22.0367 22.8217C22.0434 22.8226 22.0502 22.8235 22.0573 22.8245C24.0997 23.1363 26.2523 22.2323 27.4384 20.4929C27.7255 20.0702 28.0355 19.1909 28.2483 18.5872L28.2508 18.58C28.2819 18.4919 28.311 18.4098 28.3374 18.3358C28.3862 18.1987 28.4168 18.1302 28.5515 18.0927C30.3491 17.5254 30.4959 14.9881 28.8694 14.0717ZM14.6337 29.0338C13.6187 29.009 13.5575 27.4627 14.6093 27.4441C15.5876 27.4565 15.7039 28.9715 14.6337 29.0338ZM27.8665 16.7899C27.4263 16.7835 27.0715 16.4282 27.0776 15.9917C27.1022 14.9008 28.6309 14.9819 28.6247 16.0416C28.6126 16.4657 28.2824 16.7961 27.8665 16.7899ZM16.2848 23.7534C13.5392 23.7098 10.4389 22.893 8.92849 20.3496C7.5932 18.2203 7.96507 15.7495 8.32686 13.3458L8.32686 13.3457L8.32692 13.3454C8.44391 12.568 8.55985 11.7976 8.61663 11.0481C8.67777 10.3561 8.70224 9.66411 8.64719 8.97211C8.5616 8.34245 9.10581 7.88736 9.68675 8.02451C10.2249 8.12425 10.7691 8.21154 11.3133 8.19283C11.645 8.18367 12.0331 8.16684 12.4579 8.14843L12.4586 8.14841L12.4586 8.1484C14.6341 8.05412 17.7712 7.91816 19.2139 8.55442C21.5498 9.5893 23.0295 11.977 23.2803 14.4644C23.3966 15.3933 23.4025 16.3346 23.317 17.2699C23.2742 17.7374 22.9195 18.0552 22.4669 18.0366C22.0696 18.0242 21.7088 17.6813 21.6721 17.2823C21.6681 17.2586 21.6693 17.2323 21.6705 17.2051L21.6707 17.2017C21.6714 17.1872 21.6721 17.1725 21.6721 17.1576C21.935 13.7787 21.0789 10.1878 17.2204 9.81996C16.2493 9.72094 15.2779 9.76754 14.3067 9.81414C14.1772 9.82036 14.0478 9.82655 13.9183 9.83242C12.7687 9.8823 11.6252 9.91348 10.4756 9.80749L10.4714 9.8072C10.382 9.80109 10.3227 9.79705 10.3227 9.92593C10.3173 11.282 10.1239 12.6183 9.93078 13.9525L9.93074 13.9527L9.9271 13.9779C9.90393 14.138 9.88077 14.2981 9.85797 14.4582C9.55833 16.4843 9.37488 18.6975 10.9281 20.2622C12.3651 21.6462 14.4197 22.0515 16.3399 22.0638C17.3671 22.1139 17.4467 23.7473 16.2848 23.7534ZM15.337 17.756C16.7985 17.8248 16.8291 19.963 15.3554 20.0005C14.7377 19.9941 14.2485 19.4704 14.2546 18.8284C14.2546 18.2236 14.7316 17.7498 15.337 17.756ZM18.639 14.6889C20.1127 14.7325 20.1432 16.8895 18.688 16.9394C18.0825 16.9394 17.5689 16.422 17.5628 15.8172C17.5628 15.1751 18.0275 14.6826 18.639 14.6889Z" fill="url(#paint0_linear_4553_24004)"/>
<defs>
<linearGradient id="paint0_linear_4553_24004" x1="18.9943" y1="8" x2="18.9943" y2="30.4443" gradientUnits="userSpaceOnUse">
<stop stop-color="#FF8F00"/>
<stop offset="0.46223" stop-color="#FF0474"/>
<stop offset="1" stop-color="#5200FF"/>
</linearGradient>
</defs>
</svg>
