<svg width="36" height="36" viewBox="0 0 36 36" fill="none" xmlns="http://www.w3.org/2000/svg">
<rect width="36" height="36" fill="url(#paint0_linear_142_4092)"/>
<path d="M28.5972 10.8016C28.2361 10.5102 27.8056 10.1122 27.0209 10.0128C26.2847 9.91328 25.5347 10.4178 25.0278 10.7518C24.5208 11.0858 23.5625 12.0665 23.1667 12.3649C22.7708 12.6634 21.757 12.9406 20.125 13.9426C18.4931 14.9445 12.0903 19.1514 12.0903 19.1514L13.7569 19.1728L6.32639 23.0884H7.06944L6 23.9197C6 23.9197 6.94445 24.1756 7.73611 23.664V23.8984C7.73611 23.8984 16.5833 20.3312 18.2917 21.2549L17.25 21.5676C17.3402 21.5676 19.0208 21.6813 19.0208 21.6813C19.0616 22.0375 19.1786 22.38 19.3634 22.6846C19.5482 22.9891 19.7964 23.2483 20.0903 23.4437C21.1042 24.1259 21.125 24.5026 21.125 24.5026C21.125 24.5026 20.5973 24.7228 20.5973 25C20.5973 25 21.375 24.7583 22.0973 24.7796C22.5556 24.7975 23.0102 24.8714 23.4514 25C23.4514 25 23.3958 24.7015 22.6944 24.5026C21.993 24.3035 21.2986 23.5218 20.9584 23.0955C20.7499 22.8241 20.6141 22.5019 20.5642 22.1604C20.5142 21.819 20.5519 21.4703 20.6736 21.1483C20.9167 20.5016 21.7639 20.1464 23.5139 19.2225C25.5764 18.1282 26.0486 17.3181 26.3402 16.6856C26.632 16.0531 27.0625 14.7953 27.3055 14.2055C27.6112 13.4451 27.9862 13.04 28.2986 12.7984C28.6111 12.5568 30 12.0238 30 12.0238C30 12.0238 28.9375 11.0787 28.5972 10.8016Z" fill="white"/>
<defs>
<linearGradient id="paint0_linear_142_4092" x1="0" y1="0" x2="36" y2="36" gradientUnits="userSpaceOnUse">
<stop stop-color="#3C3C3C"/>
<stop offset="1"/>
</linearGradient>
</defs>
</svg>
