<svg width="36" height="36" viewBox="0 0 36 36" fill="none" xmlns="http://www.w3.org/2000/svg">
<rect width="36" height="36" fill="url(#paint0_linear_142_4092)"/>
<path d="M26.831 12.155C26.5301 11.9169 26.1713 11.5917 25.5174 11.5104C24.9039 11.4291 24.2789 11.8414 23.8565 12.1144C23.434 12.3873 22.6354 13.1887 22.3056 13.4326C21.9757 13.6766 21.1308 13.903 19.7708 14.7219C18.4109 15.5407 13.0752 18.9786 13.0752 18.9786L14.4641 18.9961L8.27199 22.1959H8.8912L8 22.8753C8 22.8753 8.78704 23.0844 9.44676 22.6663V22.8579C9.44676 22.8579 16.8194 19.9427 18.2431 20.6976L17.375 20.9531C17.4502 20.9531 18.8507 21.046 18.8507 21.046C18.8847 21.3371 18.9822 21.617 19.1362 21.8659C19.2902 22.1148 19.497 22.3266 19.7419 22.4863C20.5868 23.0438 20.6042 23.3516 20.6042 23.3516C20.6042 23.3516 20.1644 23.5316 20.1644 23.7581C20.1644 23.7581 20.8125 23.5606 21.4144 23.578C21.7963 23.5926 22.1752 23.653 22.5428 23.7581C22.5428 23.7581 22.4965 23.5142 21.912 23.3516C21.3275 23.1889 20.7488 22.5501 20.4653 22.2017C20.2916 21.9799 20.1784 21.7166 20.1368 21.4376C20.0952 21.1586 20.1266 20.8736 20.228 20.6105C20.4306 20.082 21.1366 19.7917 22.5949 19.0367C24.3137 18.1424 24.7072 17.4804 24.9502 16.9635C25.1933 16.4466 25.5521 15.4187 25.7546 14.9367C26.0093 14.3154 26.3218 13.9843 26.5822 13.7869C26.8426 13.5894 28 13.1539 28 13.1539C28 13.1539 27.1146 12.3815 26.831 12.155Z" fill="white"/>
<defs>
<linearGradient id="paint0_linear_142_4092" x1="0" y1="0" x2="36" y2="36" gradientUnits="userSpaceOnUse">
<stop stop-color="#3C3C3C"/>
<stop offset="1"/>
</linearGradient>
</defs>
</svg>
