<svg width="36" height="36" viewBox="0 0 36 36" fill="none" xmlns="http://www.w3.org/2000/svg">
<rect width="36" height="36" fill="black"/>
<path fill-rule="evenodd" clip-rule="evenodd" d="M25.0139 9.46497L24.9411 9.40685C24.6498 9.17323 24.2923 8.88671 23.6804 8.81064C23.0685 8.72949 22.4452 9.13247 22.0169 9.40939L21.9948 9.4237C21.7437 9.58596 21.3615 9.9322 21.0208 10.241L21.0192 10.2425C20.7787 10.4604 20.559 10.6595 20.4205 10.7618C20.2861 10.8612 20.0673 10.9578 19.7644 11.0916C19.3127 11.291 18.6739 11.5731 17.8478 12.0705C16.4674 12.9017 11.0518 16.3915 11.0518 16.3915L12.4615 16.4092L6.17647 19.6574H6.80496L5.90039 20.347C5.90039 20.347 6.69924 20.5593 7.36885 20.1348V20.3293C7.36885 20.3293 14.8521 17.37 16.297 18.1364L15.416 18.3957C15.4787 18.3957 16.4462 18.4592 16.7921 18.482C16.3215 19.2518 16.0504 20.1567 16.0504 21.125C16.0504 23.9279 18.3225 26.2 21.1254 26.2C23.9282 26.2 26.2004 23.9279 26.2004 21.125C26.2004 18.3222 23.9282 16.05 21.1254 16.05C20.7349 16.05 20.3549 16.0941 19.9898 16.1776C20.5051 16.0013 21.0578 15.9056 21.6329 15.9056H21.6513C22.6208 15.2652 22.9103 14.7598 23.1049 14.346C23.2544 14.0279 23.4473 13.5191 23.6216 13.0588C23.7348 12.7598 23.8404 12.4812 23.9213 12.2886C24.1798 11.6579 24.4969 11.3219 24.7614 11.1214C25.0256 10.921 26.2004 10.4789 26.2004 10.4789C26.2004 10.4789 25.3017 9.69488 25.0139 9.46497ZM21.3251 18.95H20.4004V23.3H23.3004V22.5571H21.3251V18.95ZM21.1254 16.6139C18.634 16.6139 16.6143 18.6337 16.6143 21.125C16.6143 23.6164 18.634 25.6361 21.1254 25.6361C23.6168 25.6361 25.6365 23.6164 25.6365 21.125C25.6365 18.6337 23.6168 16.6139 21.1254 16.6139Z" fill="white"/>
</svg>
