<svg width="36" height="36" viewBox="0 0 36 36" fill="none" xmlns="http://www.w3.org/2000/svg">
<rect width="36" height="36" fill="black"/>
<path d="M27.3233 23.113L20.8427 25.8126C20.5405 25.9361 20.2134 26 19.8824 26C19.5515 26 19.2243 25.9361 18.9221 25.8126L8.67703 21.6606C8.4746 21.5734 8.30343 21.4352 8.18355 21.2622C8.06366 21.0891 8 20.8884 8 20.6834C8 20.4784 8.06366 20.2777 8.18355 20.1046C8.30343 19.9315 8.4746 19.7933 8.67703 19.7061L12.801 18L18.8809 20.4782C19.1831 20.6017 19.5103 20.6657 19.8412 20.6657C20.1721 20.6657 20.4993 20.6017 20.8015 20.4782L23.2111 19.474L27.3351 21.1639C27.5353 21.2527 27.704 21.3918 27.8217 21.5648C27.9393 21.7379 28.0012 21.938 28 22.1418C27.9988 22.3458 27.9345 22.5452 27.8147 22.7171C27.695 22.889 27.5246 23.0261 27.3233 23.113Z" fill="url(#paint0_linear_4534_23363)"/>
<path d="M8.71216 15.2796L18.9275 19.7968C19.2294 19.9307 19.5565 20 19.8871 20C20.2178 20 20.5448 19.9307 20.8468 19.7968L27.3234 16.8712C27.5257 16.7767 27.6967 16.6269 27.8166 16.4394C27.9363 16.2517 28 16.0342 28 15.812C28 15.5899 27.9363 15.3724 27.8166 15.1848C27.6967 14.9973 27.5257 14.8475 27.3234 14.753L17.2494 10.2065C16.948 10.0704 16.6208 10 16.2898 10C15.9586 10 15.6314 10.0704 15.33 10.2065L8.70626 13.1322C8.49585 13.2235 8.31688 13.374 8.19139 13.5651C8.06591 13.7562 7.99938 13.9796 8 14.2078C8.00063 14.436 8.06838 14.6591 8.19491 14.8495C8.32143 15.0399 8.50123 15.1894 8.71216 15.2796Z" fill="url(#paint1_linear_4534_23363)"/>
<defs>
<linearGradient id="paint0_linear_4534_23363" x1="10.6358" y1="20.337" x2="19.8538" y2="23.8312" gradientUnits="userSpaceOnUse">
<stop stop-color="#F1C486"/>
<stop offset="1" stop-color="#DD3FA6"/>
</linearGradient>
<linearGradient id="paint1_linear_4534_23363" x1="10.6698" y1="14.0915" x2="28.0328" y2="16.0524" gradientUnits="userSpaceOnUse">
<stop stop-color="#64CBF9"/>
<stop offset="1" stop-color="#4C19E7"/>
</linearGradient>
</defs>
</svg>
