<svg width="36" height="36" viewBox="0 0 36 36" fill="none" xmlns="http://www.w3.org/2000/svg">
<rect width="36" height="36" fill="#392B73"/>
<path d="M21.1523 9.0625V8.12773H21.9V4H19.2477V8.11558H18.5V7.375H14.5215V8.50001H13.4V9.0625H17.3786V8.50792H18.5V8.96538H20.031C20.4057 8.97202 20.78 9.00442 21.1523 9.0625Z" fill="#D83F89"/>
<path fill-rule="evenodd" clip-rule="evenodd" d="M25.3843 22.319H24.2586L24.185 22.1688C24.185 22.1688 23.573 20.8041 22.0554 20.4535C23.5118 20.0152 24.5034 19.0636 24.9928 17.9619H26.1187C26.3406 17.4666 26.4575 16.929 26.4614 16.3843C26.4655 15.854 26.4123 15.325 26.3023 14.8067C25.8251 12.6155 24.2462 11.0755 21.1376 10.775H21.1131L20.7824 10.75H11.126V17.9744H10V22.3315H11.126V25.9375H15.3852V22.319H18.604C19.9992 22.319 20.4399 23.1579 21.3332 25.2363C21.4313 25.4449 21.5292 25.6704 21.627 25.9124H27C26.4371 24.4976 25.6291 22.8198 25.3843 22.319ZM15.3852 14.8067H19.6932C20.5745 14.8067 21.3944 15.4828 21.3944 16.3843C21.3944 17.2857 20.5745 17.9619 19.6932 17.9619H18.5V17.5H16.8V17.9619H15.3852V14.8067Z" fill="#D83F89"/>
<path d="M20.0759 25.7775L20.181 26.1267L20.3528 26.7377H21.9V31H19.054V24.0465H17.9461V27.7268H15.1V26.7522H16.5899V22.5625H18.4236C19.0731 22.5625 19.2354 22.8826 20.0759 25.7775Z" fill="#D83F89"/>
</svg>
