<svg width="36" height="36" viewBox="0 0 36 36" fill="none" xmlns="http://www.w3.org/2000/svg">
<rect width="36" height="36" fill="#FF00C7"/>
<path d="M14.4853 21.5213C12.5358 23.4694 9.38662 23.4694 7.46212 21.5213C5.51263 19.5733 5.51263 16.4267 7.46212 14.5037C9.41161 12.5557 12.5608 12.5557 14.4853 14.5037C16.4349 16.4267 16.4349 19.5733 14.4853 21.5213ZM21.5334 14.4787C23.4829 12.5307 23.4829 9.38398 21.5334 7.46098C19.584 5.51301 16.4349 5.51301 14.5103 7.46098C12.5608 9.40895 12.5608 12.5557 14.5103 14.4787C16.4349 16.4267 19.584 16.4267 21.5334 14.4787ZM14.4853 21.5213C12.5358 23.4694 12.5358 26.616 14.4853 28.539C16.4349 30.487 19.584 30.487 21.5085 28.539C23.458 26.5911 23.458 23.4443 21.5085 21.5213C19.584 19.5733 16.4349 19.5733 14.4853 21.5213ZM28.5567 14.4787C26.6071 12.5307 23.458 12.5307 21.5334 14.4787C19.584 16.4267 19.584 19.5733 21.5334 21.4963C23.4829 23.4443 26.6321 23.4443 28.5567 21.4963C30.4811 19.5733 30.4811 16.4267 28.5567 14.4787Z" fill="white"/>
</svg>
