<svg width="36" height="36" viewBox="0 0 36 36" fill="none" xmlns="http://www.w3.org/2000/svg">
<rect width="36" height="36" fill="url(#paint0_linear_4518_23392)"/>
<path fill-rule="evenodd" clip-rule="evenodd" d="M25.0291 11.9819L26.9797 11.7215L28.0856 13.7936L26.8479 15.2568C26.9983 15.7072 27.1168 16.1685 27.2025 16.6371L29.0006 17.3164L28.9666 19.6895L27.1932 20.3103C27.1071 20.7777 26.9885 21.238 26.8386 21.6874L28.0729 23.2182L26.9088 25.2562L25.0788 24.8668C24.78 25.2272 24.4562 25.564 24.1099 25.8747L24.446 27.8429L22.4635 28.9991L21.528 28.1336V24.3848C22.3407 23.8565 23.0352 23.1519 23.5647 22.3185C24.0941 21.485 24.4458 20.5424 24.5964 19.5543C24.7469 18.5664 24.6924 17.5561 24.4368 16.592C24.1812 15.6278 23.7303 14.7324 23.1147 13.9664L25.0291 11.9819ZM12.829 14.0443C12.2294 14.813 11.7934 15.7064 11.55 16.6651C11.3066 17.6238 11.2615 18.6256 11.4175 19.604C11.5736 20.5824 11.9272 21.5147 12.455 22.3389C12.9827 23.1632 13.6724 23.8603 14.4781 24.384V28.0728L13.4475 28.9805L11.4983 27.7636L11.87 25.8509C11.5253 25.5387 11.2031 25.2004 10.906 24.8386L9.0228 25.1902L7.91697 23.1173L9.15471 21.6541C9.00419 21.2036 8.88565 20.742 8.80006 20.2732L7.00195 19.5939L7.03529 17.2207L8.80857 16.5999C8.89471 16.1325 9.01324 15.6722 9.16324 15.2227L7.92974 13.692L9.09302 11.6541L10.9103 12.0404L12.829 14.0443Z" fill="url(#paint1_linear_4518_23392)"/>
<path fill-rule="evenodd" clip-rule="evenodd" d="M11.5945 9.11347L13.5771 7.95721L14.9759 9.25142C15.4069 9.09399 15.8483 8.97004 16.2967 8.88059L16.9464 7.00049L19.2164 7.03535L19.8094 8.88949C20.2565 8.9797 20.6968 9.10364 21.1266 9.26032L22.5901 7.97056L24.5387 9.18765L24.167 11.1004C24.3013 11.2215 24.4322 11.3473 24.5599 11.4779L22.6603 13.464C22.3398 13.1423 21.9896 12.8546 21.6147 12.6052L20.5074 11.868V18.8329L19.2717 19.579L18.036 20.3251L16.8004 19.579L15.5647 18.8329V11.868L14.4574 12.6052C14.0549 12.8746 13.6811 13.1881 13.3423 13.5404L11.4434 11.555C11.5994 11.3933 11.7619 11.2366 11.9307 11.0848L11.5945 9.11347Z" fill="white"/>
<defs>
<linearGradient id="paint0_linear_4518_23392" x1="0" y1="0" x2="36" y2="36" gradientUnits="userSpaceOnUse">
<stop stop-color="#3C3C3C"/>
<stop offset="1"/>
</linearGradient>
<linearGradient id="paint1_linear_4518_23392" x1="18.0013" y1="11.6541" x2="18.0013" y2="28.9991" gradientUnits="userSpaceOnUse">
<stop stop-color="#B938C5"/>
<stop offset="1" stop-color="#5FB9CD"/>
</linearGradient>
</defs>
</svg>
