<svg width="24" height="24" viewBox="0 0 24 24" fill="none" xmlns="http://www.w3.org/2000/svg">
<path fill-rule="evenodd" clip-rule="evenodd" d="M18.3893 6.5285L20.1627 6.29183L21.1681 8.17566L20.0428 9.50593C20.1796 9.91534 20.2873 10.3348 20.3652 10.7608L22 11.3784L21.969 13.5359L20.3568 14.1003C20.2785 14.5252 20.1707 14.9437 20.0344 15.3523L21.1565 16.744L20.0982 18.5968L18.4345 18.2428C18.1628 18.5705 17.8684 18.8767 17.5536 19.1591L17.8592 20.9485L16.0568 21.9997L15.2063 21.2128V17.8046C15.9451 17.3243 16.5765 16.6837 17.0579 15.926C17.5392 15.1683 17.859 14.3113 17.9959 13.413C18.1327 12.5148 18.0832 11.5963 17.8508 10.7198C17.6184 9.84319 17.2085 9.02915 16.6488 8.33276L18.3893 6.5285ZM7.29761 8.40357C6.75251 9.10239 6.35612 9.91465 6.13485 10.7863C5.91358 11.6579 5.87251 12.5687 6.01438 13.4582C6.15625 14.3477 6.4778 15.1953 6.9576 15.9446C7.4374 16.694 8.06444 17.3278 8.79693 17.8039V21.1575L7.85993 21.9828L6.08783 20.8764L6.42574 19.1375C6.11236 18.8537 5.81945 18.5461 5.54937 18.2172L3.83724 18.5368L2.83188 16.6523L3.95717 15.322C3.82032 14.9124 3.71255 14.4928 3.63474 14.0666L2 13.449L2.03031 11.2914L3.64248 10.727C3.72079 10.3021 3.82855 9.88356 3.96492 9.47493L2.84349 8.0833L3.90108 6.23047L5.55323 6.58175L7.29761 8.40357Z" fill="url(#paint0_linear_1480_7756)"/>
<path fill-rule="evenodd" clip-rule="evenodd" d="M6.17642 3.92091L7.97883 2.86975L9.25052 4.04632C9.64229 3.9032 10.0436 3.79052 10.4512 3.7092L11.0419 2L13.1055 2.03169L13.6446 3.71729C14.0511 3.7993 14.4513 3.91197 14.8421 4.05441L16.1725 2.88189L17.944 3.98834L17.6061 5.72719C17.7282 5.83731 17.8472 5.95171 17.9633 6.07038L16.2364 7.876C15.945 7.58349 15.6266 7.32196 15.2858 7.09524L14.2792 6.42503V12.7568L13.1558 13.4351L12.0324 14.1134L10.9091 13.4351L9.78575 12.7568V6.42503L8.77911 7.09524C8.41322 7.34012 8.07339 7.62513 7.76538 7.94544L6.03906 6.1405C6.18093 5.99352 6.32861 5.85103 6.48209 5.71303L6.17642 3.92091Z" fill="white"/>
<defs>
<linearGradient id="paint0_linear_1480_7756" x1="12" y1="6.23047" x2="12" y2="21.9997" gradientUnits="userSpaceOnUse">
<stop stop-color="#B938C5"/>
<stop offset="1" stop-color="#5FB9CD"/>
</linearGradient>
</defs>
</svg>
