<svg width="36" height="36" viewBox="0 0 36 36" fill="none" xmlns="http://www.w3.org/2000/svg">
<rect width="36" height="36" fill="#26A17B"/>
<path fill-rule="evenodd" clip-rule="evenodd" d="M20.0336 19.2139V19.2118C19.9197 19.2204 19.3325 19.2566 18.0228 19.2566C16.9769 19.2566 16.2409 19.2247 15.9819 19.2118V19.2149C11.9563 19.0324 8.95153 18.3093 8.95153 17.4443C8.95153 16.5804 11.9563 15.8573 15.9819 15.6715V18.4952C16.245 18.5143 16.9988 18.5603 18.0403 18.5603C19.2901 18.5603 19.9165 18.507 20.0336 18.4962V15.6736C24.051 15.8585 27.0484 16.5814 27.0484 17.4443C27.0484 18.3093 24.051 19.0302 20.0336 19.2139ZM20.0336 15.38V12.8532H25.6393V9H10.3763V12.8532H15.9819V15.3788C11.4262 15.5946 8 16.5259 8 17.6408C8 18.7558 11.4262 19.686 15.9819 19.9027V28H20.0336V19.9006C24.5821 19.6848 28 18.7548 28 17.6408C28 16.5269 24.5821 15.5967 20.0336 15.38Z" fill="white"/>
</svg>
