<svg width="36" height="36" viewBox="0 0 36 36" fill="none" xmlns="http://www.w3.org/2000/svg">
<rect width="36" height="36" fill="black"/>
<path fill-rule="evenodd" clip-rule="evenodd" d="M16.6967 6.176C16.6967 5.52404 17.222 5 17.8755 5C18.1944 5 18.5013 5.12518 18.7302 5.32312C18.9605 5.52209 19.1387 5.82005 19.1387 6.176C19.1387 6.4401 19.0359 6.67871 18.8823 6.87418L28.6076 23.6677C28.6773 23.6548 28.7493 23.648 28.823 23.648C29.4741 23.648 30.002 24.1745 30.002 24.824C30.002 25.4735 29.4741 26 28.823 26C28.3202 26 27.891 25.6861 27.7215 25.244H8.28242C8.11293 25.6861 7.68366 26 7.18089 26C6.52979 26 6.00195 25.4735 6.00195 24.824C6.00195 24.1745 6.52979 23.648 7.18089 23.648C7.2123 23.648 7.24343 23.6492 7.27422 23.6516L17.0409 7.0084C16.8279 6.79591 16.6967 6.50193 16.6967 6.176ZM17.8866 7.35201C17.9628 7.35204 18.0738 7.35201 18.1779 7.33719L27.8891 24.1062C27.8196 24.1961 27.7628 24.2962 27.7215 24.404H8.28242C8.22651 24.2582 8.14238 24.1264 8.03667 24.015L17.8158 7.35054C17.8356 7.35152 17.8556 7.35201 17.8755 7.35201H17.8866ZM23.2649 21.6321H12.7386L17.9597 12.5602L23.2649 21.6321Z" fill="#66A8CD"/>
</svg>
